<?xml version="1.0" encoding="utf-8" standalone="no"?>
<!DOCTYPE svg PUBLIC "-//W3C//DTD SVG 1.1//EN"
  "http://www.w3.org/Graphics/SVG/1.1/DTD/svg11.dtd">
<svg xmlns:xlink="http://www.w3.org/1999/xlink" width="864pt" height="432pt" viewBox="0 0 864 432" xmlns="http://www.w3.org/2000/svg" version="1.1">
 <metadata>
  <rdf:RDF xmlns:dc="http://purl.org/dc/elements/1.1/" xmlns:cc="http://creativecommons.org/ns#" xmlns:rdf="http://www.w3.org/1999/02/22-rdf-syntax-ns#">
   <cc:Work>
    <dc:type rdf:resource="http://purl.org/dc/dcmitype/StillImage"/>
    <dc:date>2022-06-03T14:50:17.377803</dc:date>
    <dc:format>image/svg+xml</dc:format>
    <dc:creator>
     <cc:Agent>
      <dc:title>Matplotlib v3.5.1, https://matplotlib.org/</dc:title>
     </cc:Agent>
    </dc:creator>
   </cc:Work>
  </rdf:RDF>
 </metadata>
 <defs>
  <style type="text/css">*{stroke-linejoin: round; stroke-linecap: butt}</style>
 </defs>
 <g id="figure_1">
  <g id="patch_1">
   <path d="M 0 432 
L 864 432 
L 864 0 
L 0 0 
z
" style="fill: #ffffff"/>
  </g>
  <g id="axes_1">
   <g id="patch_2">
    <path d="M 48.49 404.12 
L 853.2 404.12 
L 853.2 10.8 
L 48.49 10.8 
z
" style="fill: #ffffff"/>
   </g>
   <g id="matplotlib.axis_1">
    <g id="xtick_1">
     <g id="line2d_1">
      <defs>
       <path id="md14fc90719" d="M 0 0 
L 0 3.5 
" style="stroke: #000000; stroke-width: 0.8"/>
      </defs>
      <g>
       <use xlink:href="#md14fc90719" x="85.067727" y="404.12" style="stroke: #000000; stroke-width: 0.8"/>
      </g>
     </g>
     <g id="text_1">
      <!-- 680 -->
      <g transform="translate(75.523977 418.718437)scale(0.1 -0.1)">
       <defs>
        <path id="DejaVuSans-36" d="M 2113 2584 
Q 1688 2584 1439 2293 
Q 1191 2003 1191 1497 
Q 1191 994 1439 701 
Q 1688 409 2113 409 
Q 2538 409 2786 701 
Q 3034 994 3034 1497 
Q 3034 2003 2786 2293 
Q 2538 2584 2113 2584 
z
M 3366 4563 
L 3366 3988 
Q 3128 4100 2886 4159 
Q 2644 4219 2406 4219 
Q 1781 4219 1451 3797 
Q 1122 3375 1075 2522 
Q 1259 2794 1537 2939 
Q 1816 3084 2150 3084 
Q 2853 3084 3261 2657 
Q 3669 2231 3669 1497 
Q 3669 778 3244 343 
Q 2819 -91 2113 -91 
Q 1303 -91 875 529 
Q 447 1150 447 2328 
Q 447 3434 972 4092 
Q 1497 4750 2381 4750 
Q 2619 4750 2861 4703 
Q 3103 4656 3366 4563 
z
" transform="scale(0.015625)"/>
        <path id="DejaVuSans-38" d="M 2034 2216 
Q 1584 2216 1326 1975 
Q 1069 1734 1069 1313 
Q 1069 891 1326 650 
Q 1584 409 2034 409 
Q 2484 409 2743 651 
Q 3003 894 3003 1313 
Q 3003 1734 2745 1975 
Q 2488 2216 2034 2216 
z
M 1403 2484 
Q 997 2584 770 2862 
Q 544 3141 544 3541 
Q 544 4100 942 4425 
Q 1341 4750 2034 4750 
Q 2731 4750 3128 4425 
Q 3525 4100 3525 3541 
Q 3525 3141 3298 2862 
Q 3072 2584 2669 2484 
Q 3125 2378 3379 2068 
Q 3634 1759 3634 1313 
Q 3634 634 3220 271 
Q 2806 -91 2034 -91 
Q 1263 -91 848 271 
Q 434 634 434 1313 
Q 434 1759 690 2068 
Q 947 2378 1403 2484 
z
M 1172 3481 
Q 1172 3119 1398 2916 
Q 1625 2713 2034 2713 
Q 2441 2713 2670 2916 
Q 2900 3119 2900 3481 
Q 2900 3844 2670 4047 
Q 2441 4250 2034 4250 
Q 1625 4250 1398 4047 
Q 1172 3844 1172 3481 
z
" transform="scale(0.015625)"/>
        <path id="DejaVuSans-30" d="M 2034 4250 
Q 1547 4250 1301 3770 
Q 1056 3291 1056 2328 
Q 1056 1369 1301 889 
Q 1547 409 2034 409 
Q 2525 409 2770 889 
Q 3016 1369 3016 2328 
Q 3016 3291 2770 3770 
Q 2525 4250 2034 4250 
z
M 2034 4750 
Q 2819 4750 3233 4129 
Q 3647 3509 3647 2328 
Q 3647 1150 3233 529 
Q 2819 -91 2034 -91 
Q 1250 -91 836 529 
Q 422 1150 422 2328 
Q 422 3509 836 4129 
Q 1250 4750 2034 4750 
z
" transform="scale(0.015625)"/>
       </defs>
       <use xlink:href="#DejaVuSans-36"/>
       <use xlink:href="#DejaVuSans-38" x="63.623047"/>
       <use xlink:href="#DejaVuSans-30" x="127.246094"/>
      </g>
     </g>
    </g>
    <g id="xtick_2">
     <g id="line2d_2">
      <g>
       <use xlink:href="#md14fc90719" x="206.993485" y="404.12" style="stroke: #000000; stroke-width: 0.8"/>
      </g>
     </g>
     <g id="text_2">
      <!-- 685 -->
      <g transform="translate(197.449735 418.718437)scale(0.1 -0.1)">
       <defs>
        <path id="DejaVuSans-35" d="M 691 4666 
L 3169 4666 
L 3169 4134 
L 1269 4134 
L 1269 2991 
Q 1406 3038 1543 3061 
Q 1681 3084 1819 3084 
Q 2600 3084 3056 2656 
Q 3513 2228 3513 1497 
Q 3513 744 3044 326 
Q 2575 -91 1722 -91 
Q 1428 -91 1123 -41 
Q 819 9 494 109 
L 494 744 
Q 775 591 1075 516 
Q 1375 441 1709 441 
Q 2250 441 2565 725 
Q 2881 1009 2881 1497 
Q 2881 1984 2565 2268 
Q 2250 2553 1709 2553 
Q 1456 2553 1204 2497 
Q 953 2441 691 2322 
L 691 4666 
z
" transform="scale(0.015625)"/>
       </defs>
       <use xlink:href="#DejaVuSans-36"/>
       <use xlink:href="#DejaVuSans-38" x="63.623047"/>
       <use xlink:href="#DejaVuSans-35" x="127.246094"/>
      </g>
     </g>
    </g>
    <g id="xtick_3">
     <g id="line2d_3">
      <g>
       <use xlink:href="#md14fc90719" x="328.919242" y="404.12" style="stroke: #000000; stroke-width: 0.8"/>
      </g>
     </g>
     <g id="text_3">
      <!-- 690 -->
      <g transform="translate(319.375492 418.718437)scale(0.1 -0.1)">
       <defs>
        <path id="DejaVuSans-39" d="M 703 97 
L 703 672 
Q 941 559 1184 500 
Q 1428 441 1663 441 
Q 2288 441 2617 861 
Q 2947 1281 2994 2138 
Q 2813 1869 2534 1725 
Q 2256 1581 1919 1581 
Q 1219 1581 811 2004 
Q 403 2428 403 3163 
Q 403 3881 828 4315 
Q 1253 4750 1959 4750 
Q 2769 4750 3195 4129 
Q 3622 3509 3622 2328 
Q 3622 1225 3098 567 
Q 2575 -91 1691 -91 
Q 1453 -91 1209 -44 
Q 966 3 703 97 
z
M 1959 2075 
Q 2384 2075 2632 2365 
Q 2881 2656 2881 3163 
Q 2881 3666 2632 3958 
Q 2384 4250 1959 4250 
Q 1534 4250 1286 3958 
Q 1038 3666 1038 3163 
Q 1038 2656 1286 2365 
Q 1534 2075 1959 2075 
z
" transform="scale(0.015625)"/>
       </defs>
       <use xlink:href="#DejaVuSans-36"/>
       <use xlink:href="#DejaVuSans-39" x="63.623047"/>
       <use xlink:href="#DejaVuSans-30" x="127.246094"/>
      </g>
     </g>
    </g>
    <g id="xtick_4">
     <g id="line2d_4">
      <g>
       <use xlink:href="#md14fc90719" x="450.845" y="404.12" style="stroke: #000000; stroke-width: 0.8"/>
      </g>
     </g>
     <g id="text_4">
      <!-- 695 -->
      <g transform="translate(441.30125 418.718437)scale(0.1 -0.1)">
       <use xlink:href="#DejaVuSans-36"/>
       <use xlink:href="#DejaVuSans-39" x="63.623047"/>
       <use xlink:href="#DejaVuSans-35" x="127.246094"/>
      </g>
     </g>
    </g>
    <g id="xtick_5">
     <g id="line2d_5">
      <g>
       <use xlink:href="#md14fc90719" x="572.770758" y="404.12" style="stroke: #000000; stroke-width: 0.8"/>
      </g>
     </g>
     <g id="text_5">
      <!-- 700 -->
      <g transform="translate(563.227008 418.718437)scale(0.1 -0.1)">
       <defs>
        <path id="DejaVuSans-37" d="M 525 4666 
L 3525 4666 
L 3525 4397 
L 1831 0 
L 1172 0 
L 2766 4134 
L 525 4134 
L 525 4666 
z
" transform="scale(0.015625)"/>
       </defs>
       <use xlink:href="#DejaVuSans-37"/>
       <use xlink:href="#DejaVuSans-30" x="63.623047"/>
       <use xlink:href="#DejaVuSans-30" x="127.246094"/>
      </g>
     </g>
    </g>
    <g id="xtick_6">
     <g id="line2d_6">
      <g>
       <use xlink:href="#md14fc90719" x="694.696515" y="404.12" style="stroke: #000000; stroke-width: 0.8"/>
      </g>
     </g>
     <g id="text_6">
      <!-- 705 -->
      <g transform="translate(685.152765 418.718437)scale(0.1 -0.1)">
       <use xlink:href="#DejaVuSans-37"/>
       <use xlink:href="#DejaVuSans-30" x="63.623047"/>
       <use xlink:href="#DejaVuSans-35" x="127.246094"/>
      </g>
     </g>
    </g>
    <g id="xtick_7">
     <g id="line2d_7">
      <g>
       <use xlink:href="#md14fc90719" x="816.622273" y="404.12" style="stroke: #000000; stroke-width: 0.8"/>
      </g>
     </g>
     <g id="text_7">
      <!-- 710 -->
      <g transform="translate(807.078523 418.718437)scale(0.1 -0.1)">
       <defs>
        <path id="DejaVuSans-31" d="M 794 531 
L 1825 531 
L 1825 4091 
L 703 3866 
L 703 4441 
L 1819 4666 
L 2450 4666 
L 2450 531 
L 3481 531 
L 3481 0 
L 794 0 
L 794 531 
z
" transform="scale(0.015625)"/>
       </defs>
       <use xlink:href="#DejaVuSans-37"/>
       <use xlink:href="#DejaVuSans-31" x="63.623047"/>
       <use xlink:href="#DejaVuSans-30" x="127.246094"/>
      </g>
     </g>
    </g>
   </g>
   <g id="matplotlib.axis_2">
    <g id="ytick_1">
     <g id="line2d_8">
      <defs>
       <path id="m2dce17d96e" d="M 0 0 
L -3.5 0 
" style="stroke: #000000; stroke-width: 0.8"/>
      </defs>
      <g>
       <use xlink:href="#m2dce17d96e" x="48.49" y="361.995954" style="stroke: #000000; stroke-width: 0.8"/>
      </g>
     </g>
     <g id="text_8">
      <!-- −0.04 -->
      <g transform="translate(10.844687 365.795172)scale(0.1 -0.1)">
       <defs>
        <path id="DejaVuSans-2212" d="M 678 2272 
L 4684 2272 
L 4684 1741 
L 678 1741 
L 678 2272 
z
" transform="scale(0.015625)"/>
        <path id="DejaVuSans-2e" d="M 684 794 
L 1344 794 
L 1344 0 
L 684 0 
L 684 794 
z
" transform="scale(0.015625)"/>
        <path id="DejaVuSans-34" d="M 2419 4116 
L 825 1625 
L 2419 1625 
L 2419 4116 
z
M 2253 4666 
L 3047 4666 
L 3047 1625 
L 3713 1625 
L 3713 1100 
L 3047 1100 
L 3047 0 
L 2419 0 
L 2419 1100 
L 313 1100 
L 313 1709 
L 2253 4666 
z
" transform="scale(0.015625)"/>
       </defs>
       <use xlink:href="#DejaVuSans-2212"/>
       <use xlink:href="#DejaVuSans-30" x="83.789062"/>
       <use xlink:href="#DejaVuSans-2e" x="147.412109"/>
       <use xlink:href="#DejaVuSans-30" x="179.199219"/>
       <use xlink:href="#DejaVuSans-34" x="242.822266"/>
      </g>
     </g>
    </g>
    <g id="ytick_2">
     <g id="line2d_9">
      <g>
       <use xlink:href="#m2dce17d96e" x="48.49" y="285.244089" style="stroke: #000000; stroke-width: 0.8"/>
      </g>
     </g>
     <g id="text_9">
      <!-- −0.02 -->
      <g transform="translate(10.844687 289.043308)scale(0.1 -0.1)">
       <defs>
        <path id="DejaVuSans-32" d="M 1228 531 
L 3431 531 
L 3431 0 
L 469 0 
L 469 531 
Q 828 903 1448 1529 
Q 2069 2156 2228 2338 
Q 2531 2678 2651 2914 
Q 2772 3150 2772 3378 
Q 2772 3750 2511 3984 
Q 2250 4219 1831 4219 
Q 1534 4219 1204 4116 
Q 875 4013 500 3803 
L 500 4441 
Q 881 4594 1212 4672 
Q 1544 4750 1819 4750 
Q 2544 4750 2975 4387 
Q 3406 4025 3406 3419 
Q 3406 3131 3298 2873 
Q 3191 2616 2906 2266 
Q 2828 2175 2409 1742 
Q 1991 1309 1228 531 
z
" transform="scale(0.015625)"/>
       </defs>
       <use xlink:href="#DejaVuSans-2212"/>
       <use xlink:href="#DejaVuSans-30" x="83.789062"/>
       <use xlink:href="#DejaVuSans-2e" x="147.412109"/>
       <use xlink:href="#DejaVuSans-30" x="179.199219"/>
       <use xlink:href="#DejaVuSans-32" x="242.822266"/>
      </g>
     </g>
    </g>
    <g id="ytick_3">
     <g id="line2d_10">
      <g>
       <use xlink:href="#m2dce17d96e" x="48.49" y="208.492225" style="stroke: #000000; stroke-width: 0.8"/>
      </g>
     </g>
     <g id="text_10">
      <!-- 0.00 -->
      <g transform="translate(19.224375 212.291444)scale(0.1 -0.1)">
       <use xlink:href="#DejaVuSans-30"/>
       <use xlink:href="#DejaVuSans-2e" x="63.623047"/>
       <use xlink:href="#DejaVuSans-30" x="95.410156"/>
       <use xlink:href="#DejaVuSans-30" x="159.033203"/>
      </g>
     </g>
    </g>
    <g id="ytick_4">
     <g id="line2d_11">
      <g>
       <use xlink:href="#m2dce17d96e" x="48.49" y="131.74036" style="stroke: #000000; stroke-width: 0.8"/>
      </g>
     </g>
     <g id="text_11">
      <!-- 0.02 -->
      <g transform="translate(19.224375 135.539579)scale(0.1 -0.1)">
       <use xlink:href="#DejaVuSans-30"/>
       <use xlink:href="#DejaVuSans-2e" x="63.623047"/>
       <use xlink:href="#DejaVuSans-30" x="95.410156"/>
       <use xlink:href="#DejaVuSans-32" x="159.033203"/>
      </g>
     </g>
    </g>
    <g id="ytick_5">
     <g id="line2d_12">
      <g>
       <use xlink:href="#m2dce17d96e" x="48.49" y="54.988496" style="stroke: #000000; stroke-width: 0.8"/>
      </g>
     </g>
     <g id="text_12">
      <!-- 0.04 -->
      <g transform="translate(19.224375 58.787715)scale(0.1 -0.1)">
       <use xlink:href="#DejaVuSans-30"/>
       <use xlink:href="#DejaVuSans-2e" x="63.623047"/>
       <use xlink:href="#DejaVuSans-30" x="95.410156"/>
       <use xlink:href="#DejaVuSans-34" x="159.033203"/>
      </g>
     </g>
    </g>
   </g>
   <g id="line2d_13">
    <path d="M 85.067727 207.760225 
L 85.677356 206.102079 
L 86.286985 206.116004 
L 86.896614 208.160401 
L 87.506242 210.913058 
L 88.115871 212.352706 
L 88.7255 211.306884 
L 89.944758 205.338498 
L 90.554386 204.056044 
L 91.164015 204.944382 
L 92.383273 208.768949 
L 92.992902 209.537794 
L 93.60253 209.762119 
L 94.212159 210.376048 
L 95.431417 212.886693 
L 96.041045 212.644614 
L 96.650674 210.349001 
L 97.260303 206.865828 
L 97.869932 204.106881 
L 98.479561 203.654599 
L 99.089189 205.533476 
L 99.698818 208.158729 
L 100.308447 209.559233 
L 100.918076 208.917377 
L 101.527705 207.176839 
L 102.137333 206.209415 
L 102.746962 207.214694 
L 103.96622 211.746482 
L 104.575848 211.788651 
L 105.185477 209.762813 
L 105.795106 207.327111 
L 106.404735 206.510197 
L 107.014364 208.039211 
L 107.623992 210.707127 
L 108.233621 212.324136 
L 108.84325 211.486012 
L 110.062508 205.952452 
L 110.672136 205.034342 
L 111.281765 206.113783 
L 111.891394 207.689111 
L 112.501023 208.010509 
L 113.72028 205.267311 
L 114.329909 205.651619 
L 114.939538 208.548798 
L 115.549167 212.426021 
L 116.158795 214.54202 
L 116.768424 213.124085 
L 117.987682 204.979371 
L 118.597311 204.118195 
L 119.206939 206.985396 
L 119.816568 211.362848 
L 120.426197 213.914188 
L 121.035826 212.794371 
L 122.255083 205.643954 
L 122.864712 204.968115 
L 124.08397 208.764621 
L 124.693598 208.232035 
L 125.912856 201.903518 
L 126.522485 201.935344 
L 127.132114 206.240706 
L 127.741742 212.496486 
L 128.351371 216.618893 
L 128.961 216.008591 
L 130.180258 207.818475 
L 130.789886 207.783495 
L 132.009144 215.601004 
L 132.618773 214.94785 
L 133.228402 208.234624 
L 133.83803 198.9128 
L 134.447659 193.127814 
L 135.057288 195.110249 
L 136.276545 213.387445 
L 136.886174 217.777907 
L 137.495803 215.067747 
L 138.105432 208.902593 
L 138.715061 205.308532 
L 139.324689 207.641826 
L 139.934318 213.775115 
L 140.543947 217.886248 
L 141.153576 215.438172 
L 142.372833 199.079511 
L 142.982462 197.196516 
L 143.592091 203.069752 
L 144.20172 212.080751 
L 144.811348 217.193594 
L 145.420977 214.754236 
L 146.030606 207.550782 
L 146.640235 202.42667 
L 147.249864 204.29424 
L 147.859492 211.593942 
L 148.469121 217.269607 
L 149.07875 214.778078 
L 150.298008 193.128913 
L 150.907636 190.8337 
L 151.517265 200.490419 
L 152.126894 215.713032 
L 152.736523 225.075904 
L 153.346152 221.456011 
L 153.95578 208.620975 
L 154.565409 199.027169 
L 155.175038 203.679131 
L 156.394295 239.349197 
L 157.003924 238.552151 
L 157.613553 212.661752 
L 158.223182 173.797981 
L 158.832811 146.905896 
L 159.442439 152.661672 
L 160.052068 191.437096 
L 160.661697 240.817447 
L 161.271326 269.809508 
L 161.880955 260.331615 
L 163.100212 178.81315 
L 163.709841 164.592244 
L 164.31947 186.018961 
L 164.929098 224.861882 
L 165.538727 250.307581 
L 166.148356 242.308818 
L 167.367614 170.9078 
L 167.977242 162.36618 
L 168.586871 187.762287 
L 169.1965 227.472585 
L 169.806129 250.696154 
L 170.415758 239.380377 
L 171.635015 169.281967 
L 172.244644 166.693513 
L 172.854273 197.982189 
L 173.463902 239.660767 
L 174.07353 259.310799 
L 174.683159 240.821972 
L 175.292788 197.447394 
L 175.902417 162.198447 
L 176.512045 162.590586 
L 177.121674 199.108575 
L 177.731303 244.24581 
L 178.340932 263.270685 
L 178.950561 240.982814 
L 179.560189 193.782846 
L 180.169818 157.444216 
L 180.779447 159.698743 
L 181.998705 244.089885 
L 182.608333 260.370336 
L 183.217962 234.394005 
L 183.827591 185.999765 
L 184.43722 153.054401 
L 185.046848 162.212589 
L 186.266106 255.926443 
L 186.875735 269.528031 
L 187.485364 237.733223 
L 188.094992 184.403314 
L 188.704621 150.431769 
L 189.31425 162.467632 
L 190.533508 261.504292 
L 191.143136 272.22996 
L 191.752765 234.42895 
L 192.362394 175.080685 
L 192.972023 138.033048 
L 193.581652 150.966613 
L 194.800909 258.095587 
L 195.410538 272.246029 
L 196.020167 236.694711 
L 196.629795 179.226143 
L 197.239424 144.484585 
L 197.849053 160.092406 
L 199.068311 269.490032 
L 199.677939 281.283297 
L 200.287568 241.113152 
L 200.897197 177.959003 
L 201.506826 138.053263 
L 202.116455 150.392308 
L 203.335712 260.6436 
L 203.945341 275.117796 
L 204.55497 237.268089 
L 205.164598 175.081614 
L 205.774227 134.981321 
L 206.383856 147.361828 
L 207.603114 264.211293 
L 208.212742 284.552704 
L 208.822371 250.910392 
L 209.432 188.523416 
L 210.041629 143.286904 
L 210.651258 148.079216 
L 211.870515 258.058313 
L 212.480144 281.954601 
L 213.089773 252.723294 
L 213.699402 191.0214 
L 214.30903 140.802848 
L 214.918659 137.508822 
L 215.528288 182.788116 
L 216.137917 243.775967 
L 216.747545 277.036418 
L 217.357174 259.648563 
L 218.576432 153.445969 
L 219.186061 141.906718 
L 219.795689 179.102047 
L 220.405318 238.963287 
L 221.014947 279.498272 
L 221.624576 272.340262 
L 222.843833 163.81047 
L 223.453462 136.46268 
L 224.063091 158.108336 
L 225.282348 262.661916 
L 225.891977 273.542618 
L 226.501606 238.726721 
L 227.111235 182.695083 
L 227.720864 144.072213 
L 228.330492 149.267483 
L 228.940121 194.800066 
L 229.54975 249.992272 
L 230.159379 277.849669 
L 230.769008 259.87506 
L 231.988265 157.364533 
L 232.597894 140.930484 
L 233.207523 169.485866 
L 233.817152 223.686658 
L 234.42678 267.327725 
L 235.036409 271.439991 
L 235.646038 233.456221 
L 236.255667 178.818093 
L 236.865295 144.031583 
L 237.474924 152.409487 
L 238.694182 251.807243 
L 239.303811 276.580743 
L 239.913439 255.939849 
L 241.132697 152.72866 
L 241.742326 138.457965 
L 242.351955 170.218414 
L 242.961583 227.600214 
L 243.571212 273.033761 
L 244.180841 276.482821 
L 244.79047 235.350192 
L 245.400098 176.396141 
L 246.009727 138.290858 
L 246.619356 146.219402 
L 247.228985 195.25486 
L 247.838614 253.479171 
L 248.448242 282.83485 
L 249.057871 264.022184 
L 250.277129 153.665965 
L 250.886758 133.537488 
L 251.496386 161.629606 
L 252.715644 270.065645 
L 253.325273 280.50748 
L 253.934902 244.443576 
L 254.54453 185.188977 
L 255.154159 140.719666 
L 255.763788 139.344048 
L 256.373417 181.845699 
L 256.983045 241.301543 
L 257.592674 280.364147 
L 258.202303 274.803245 
L 258.811932 228.441076 
L 259.421561 170.352326 
L 260.031189 136.45599 
L 260.640818 147.233942 
L 261.860076 250.82058 
L 262.469705 279.415576 
L 263.079333 264.000886 
L 264.298591 161.727753 
L 264.90822 137.956085 
L 265.517848 157.662775 
L 266.737106 259.656637 
L 267.346735 279.416384 
L 267.956364 255.631149 
L 269.175621 152.034664 
L 269.78525 135.105161 
L 270.394879 162.45206 
L 271.614136 269.296398 
L 272.223765 285.017515 
L 272.833394 255.674337 
L 274.052652 147.206865 
L 274.66228 132.41321 
L 275.271909 162.75764 
L 276.491167 269.735761 
L 277.100795 282.196663 
L 277.710424 249.880751 
L 278.929682 143.690835 
L 279.539311 133.683502 
L 280.148939 168.503381 
L 281.368197 276.818445 
L 281.977826 286.480697 
L 282.587455 250.949796 
L 283.806712 140.730209 
L 284.416341 129.752912 
L 285.02597 163.988617 
L 286.245227 274.084685 
L 286.854856 286.738564 
L 287.464485 254.490705 
L 288.683742 144.767899 
L 289.293371 129.854607 
L 289.903 159.542547 
L 291.122258 269.05059 
L 291.731886 286.85284 
L 292.341515 260.319571 
L 293.560773 151.416155 
L 294.170402 130.712197 
L 294.78003 154.241078 
L 295.999288 263.635662 
L 296.608917 287.880004 
L 297.218545 267.655375 
L 298.437803 156.422481 
L 299.047432 127.033734 
L 299.657061 142.193527 
L 301.485947 288.775972 
L 302.095576 280.345519 
L 302.705205 232.938205 
L 303.314833 172.519998 
L 303.924462 132.026971 
L 304.534091 133.401153 
L 305.14372 175.735802 
L 305.753348 235.898298 
L 306.362977 281.172416 
L 306.972606 286.983664 
L 307.582235 250.121002 
L 308.801492 139.927373 
L 309.411121 125.91436 
L 310.02075 156.064151 
L 311.240008 270.202487 
L 311.849636 293.55356 
L 312.459265 272.03065 
L 313.678523 157.147313 
L 314.288152 124.343227 
L 314.89778 135.773906 
L 315.507409 185.440523 
L 316.117038 247.229867 
L 316.726667 288.690689 
L 317.336295 288.092452 
L 317.945924 245.780877 
L 318.555553 183.906155 
L 319.165182 134.753354 
L 319.774811 123.872212 
L 320.384439 156.850272 
L 321.603697 272.183026 
L 322.213326 295.170933 
L 322.822955 273.870236 
L 324.042212 159.345303 
L 324.651841 124.382785 
L 325.26147 131.957027 
L 325.871098 178.04799 
L 326.480727 239.320444 
L 327.090356 285.002961 
L 327.699985 292.326271 
L 328.309614 257.79431 
L 329.528871 144.65957 
L 330.1385 122.338929 
L 330.748129 142.792415 
L 331.967386 255.079135 
L 332.577015 291.267341 
L 333.186644 286.436308 
L 333.796273 242.885306 
L 334.405902 182.000868 
L 335.01553 133.752052 
L 335.625159 121.998087 
L 336.234788 152.802649 
L 337.454045 269.569897 
L 338.063674 298.925302 
L 338.673303 285.06891 
L 339.282932 234.346538 
L 339.892561 170.844518 
L 340.502189 124.813256 
L 341.111818 118.164053 
L 341.721447 154.004559 
L 342.940705 272.614098 
L 343.550333 299.031801 
L 344.159962 282.135175 
L 344.769591 230.313498 
L 345.37922 168.584962 
L 345.988848 126.599453 
L 346.598477 124.470134 
L 347.208106 163.197351 
L 348.427364 278.378248 
L 349.036992 299.672297 
L 349.646621 277.737087 
L 351.475508 119.094489 
L 352.085136 118.859704 
L 352.694765 159.436809 
L 353.914023 278.421687 
L 354.523652 302.78494 
L 355.13328 284.595679 
L 355.742909 232.53403 
L 356.352538 170.417957 
L 356.962167 126.285595 
L 357.571795 119.794236 
L 358.181424 153.560481 
L 359.400682 269.244531 
L 360.010311 299.095133 
L 360.619939 288.22407 
L 361.229568 241.228808 
L 361.839197 178.800148 
L 362.448826 128.607461 
L 363.058455 113.074031 
L 363.668083 139.415557 
L 365.49697 299.946275 
L 366.106598 301.117423 
L 366.716227 262.074237 
L 367.935485 142.246938 
L 368.545114 113.941471 
L 369.154742 127.228026 
L 369.764371 175.906455 
L 370.374 238.37299 
L 370.983629 287.229865 
L 371.593258 301.273358 
L 372.202886 274.600819 
L 373.422144 158.507874 
L 374.031773 119.305522 
L 374.641402 118.235083 
L 375.25103 155.895332 
L 376.470288 274.407514 
L 377.079917 305.293657 
L 377.689545 295.972139 
L 378.299174 250.108139 
L 379.518432 131.964897 
L 380.128061 108.772341 
L 380.737689 126.712743 
L 381.347318 178.286307 
L 381.956947 242.010797 
L 382.566576 291.426364 
L 383.176205 306.154735 
L 383.785833 280.351216 
L 385.61472 120.657051 
L 386.224348 114.582003 
L 386.833977 147.312006 
L 388.053235 264.739657 
L 388.662864 301.646259 
L 389.272492 301.131412 
L 389.882121 263.389004 
L 391.101379 144.906543 
L 391.711008 110.965656 
L 392.320636 114.970958 
L 392.930265 155.425911 
L 394.149523 274.539889 
L 394.759152 306.731907 
L 395.36878 300.636494 
L 395.978409 258.766273 
L 397.197667 141.380105 
L 397.807295 111.978824 
L 398.416924 120.862072 
L 399.026553 164.336679 
L 400.245811 279.413332 
L 400.855439 305.847068 
L 401.465068 294.134491 
L 402.074697 248.73138 
L 403.293955 132.641763 
L 403.903583 106.365985 
L 404.513212 118.40578 
L 405.122841 164.557018 
L 406.342098 284.678761 
L 406.951727 313.960704 
L 407.561356 304.621059 
L 408.170985 259.959719 
L 409.390242 137.577551 
L 409.999871 105.179926 
L 410.6095 111.164509 
L 411.219129 153.114666 
L 412.438386 274.265496 
L 413.048015 308.294812 
L 413.657644 304.784771 
L 414.267273 265.17064 
L 415.48653 144.374855 
L 416.096159 107.772218 
L 416.705788 107.963629 
L 417.315417 145.186162 
L 418.534674 269.341002 
L 419.144303 311.677045 
L 419.753932 317.827634 
L 420.363561 285.217118 
L 422.192447 109.493803 
L 422.802076 94.726704 
L 423.411705 119.490393 
L 424.021333 174.844891 
L 424.630962 241.19924 
L 425.240591 295.378913 
L 425.85022 318.795748 
L 426.459848 303.800267 
L 427.069477 256.077335 
L 428.288735 134.861276 
L 428.898364 103.104912 
L 429.507992 107.990921 
L 430.117621 147.869213 
L 431.336879 270.871669 
L 431.946508 311.691155 
L 432.556136 317.271664 
L 433.165765 285.295968 
L 434.994652 110.889965 
L 435.60428 93.818684 
L 436.213909 115.297368 
L 436.823538 167.805857 
L 438.042795 290.133327 
L 438.652424 319.434442 
L 439.262053 312.255553 
L 439.871682 271.614361 
L 441.090939 150.640328 
L 441.700568 109.256166 
L 442.310197 100.030511 
L 442.919826 125.74846 
L 443.529455 178.21211 
L 444.748712 293.435223 
L 445.358341 319.15451 
L 445.96797 309.283548 
L 446.577598 266.540379 
L 447.796856 142.549209 
L 448.406485 101.131464 
L 449.016114 93.545327 
L 449.625742 122.37903 
L 451.454629 299.000035 
L 452.064258 325.72319 
L 452.673886 316.41516 
L 453.283515 274.239856 
L 454.502773 149.778481 
L 455.112402 105.41607 
L 455.72203 92.510865 
L 456.331659 114.698838 
L 456.941288 165.052515 
L 458.160545 285.202929 
L 458.770174 318.772595 
L 459.379803 318.868229 
L 459.989432 285.445427 
L 461.818318 114.47381 
L 462.427947 91.800918 
L 463.037576 104.173191 
L 463.647205 148.128695 
L 464.866462 273.30864 
L 465.476091 317.27854 
L 466.08572 329.503163 
L 466.695348 306.315253 
L 467.304977 254.515277 
L 468.524235 129.412034 
L 469.133864 92.156392 
L 469.743492 87.942438 
L 470.353121 117.739222 
L 471.572379 237.920676 
L 472.182008 294.477741 
L 472.791636 326.847074 
L 473.401265 326.037233 
L 474.010894 292.301524 
L 475.83978 116.591005 
L 476.449409 88.649868 
L 477.059038 94.485578 
L 477.668667 132.398879 
L 479.497553 306.586401 
L 480.107182 330.367923 
L 480.716811 320.546769 
L 481.326439 279.865905 
L 483.155326 105.71195 
L 483.764955 83.260749 
L 484.374583 94.412675 
L 484.984212 136.258388 
L 486.813098 312.187081 
L 487.422727 335.018903 
L 488.032356 324.676275 
L 488.641985 284.215229 
L 490.470871 110.20954 
L 491.0805 84.671136 
L 491.690129 90.735777 
L 492.299758 126.74498 
L 494.128644 300.362887 
L 494.738273 330.47004 
L 495.347902 329.278899 
L 495.95753 296.999539 
L 497.786417 122.2107 
L 498.396045 88.084155 
L 499.005674 84.295762 
L 499.615303 111.623787 
L 500.224932 163.184095 
L 501.444189 285.453991 
L 502.053818 326.239016 
L 502.663447 338.477556 
L 503.273076 318.866492 
L 503.882705 271.90097 
L 505.101962 145.46618 
L 505.711591 97.151752 
L 506.32122 75.808424 
L 506.930848 86.389619 
L 507.540477 125.915425 
L 509.369364 302.314118 
L 509.978992 334.670477 
L 510.588621 338.203799 
L 511.19825 312.12866 
L 511.807879 262.089151 
L 513.027136 137.521074 
L 513.636765 91.768101 
L 514.246394 73.088796 
L 514.856023 86.44413 
L 515.465652 128.954357 
L 517.294538 309.759009 
L 517.904167 339.529066 
L 518.513795 338.9683 
L 519.123424 309.056882 
L 519.733053 257.218175 
L 520.952311 136.391278 
L 521.561939 93.120424 
L 522.171568 74.427817 
L 522.781197 84.393404 
L 523.390826 121.27235 
L 525.829341 338.380371 
L 526.43897 349.483332 
L 527.048598 330.077682 
L 527.658227 284.184378 
L 529.487114 101.283875 
L 530.096742 69.31284 
L 530.706371 66.951746 
L 531.316 94.73867 
L 531.925629 146.721668 
L 533.144886 275.693352 
L 533.754515 324.97751 
L 534.364144 349.210418 
L 534.973773 343.639238 
L 535.583402 309.993144 
L 536.802659 192.770035 
L 537.412288 133.695554 
L 538.021917 90.355599 
L 538.631545 71.092439 
L 539.241174 79.473385 
L 539.850803 113.775872 
L 541.070061 229.741136 
L 541.679689 288.623647 
L 542.289318 332.041172 
L 542.898947 350.860594 
L 543.508576 340.774976 
L 544.118205 303.403284 
L 545.337462 180.595471 
L 545.947091 120.244036 
L 546.55672 77.357755 
L 547.166348 60.466326 
L 547.775977 72.656395 
L 548.385606 111.15894 
L 549.604864 232.748551 
L 550.214492 292.779573 
L 550.824121 337.38543 
L 551.43375 358.580986 
L 552.043379 352.519047 
L 552.653008 320.087734 
L 553.262636 266.842474 
L 554.481894 137.990088 
L 555.091523 86.165755 
L 555.701152 56.584178 
L 556.31078 54.854116 
L 556.920409 81.150166 
L 557.530038 130.242934 
L 559.358924 312.187603 
L 559.968553 348.630466 
L 560.578182 360.723979 
L 561.187811 346.764962 
L 561.797439 309.209958 
L 563.016697 191.398538 
L 563.626326 131.359012 
L 564.235955 84.963721 
L 564.845583 60.694278 
L 565.455212 62.945407 
L 566.064841 91.035102 
L 566.67447 139.384756 
L 568.503356 308.507817 
L 569.112985 340.521305 
L 569.722614 349.903495 
L 570.332242 335.582486 
L 570.941871 300.113833 
L 572.161129 191.407566 
L 572.770758 136.110716 
L 573.380386 92.867061 
L 573.990015 69.262246 
L 574.599644 69.518562 
L 575.209273 93.639153 
L 575.818902 137.423074 
L 577.647788 303.460255 
L 578.257417 339.609139 
L 578.867045 354.496734 
L 579.476674 345.643944 
L 580.086303 314.316807 
L 580.695932 265.375446 
L 582.524818 97.006696 
L 583.134447 63.809109 
L 583.744076 52.971885 
L 584.353705 66.282457 
L 584.963333 101.843126 
L 586.182591 216.204474 
L 587.401848 330.073908 
L 588.011477 364.535018 
L 588.621106 375.757723 
L 589.230735 361.830758 
L 589.840364 324.815577 
L 591.059621 206.607745 
L 592.278879 88.257968 
L 592.888508 50.259691 
L 593.498136 34.163886 
L 594.107765 42.343341 
L 594.717394 73.959417 
L 595.327023 124.923337 
L 597.155909 315.558449 
L 597.765538 361.18593 
L 598.375167 385.542279 
L 598.984795 385.539191 
L 599.594424 361.622206 
L 600.204053 317.434032 
L 601.423311 194.305748 
L 602.642568 78.665309 
L 603.252197 42.823964 
L 603.861826 28.678182 
L 604.471455 38.107435 
L 605.081083 69.80986 
L 605.690712 119.500414 
L 607.519598 304.701096 
L 608.129227 351.800709 
L 608.738856 380.250231 
L 609.348485 386.241818 
L 609.958114 368.9151 
L 610.567742 330.660407 
L 611.787 215.24412 
L 613.006258 101.773047 
L 613.615886 64.177135 
L 614.225515 45.307233 
L 614.835144 46.553657 
L 615.444773 67.030918 
L 616.054402 103.894031 
L 617.273659 207.456951 
L 618.492917 308.89272 
L 619.102545 343.205693 
L 619.712174 360.711255 
L 620.321803 359.655056 
L 620.931432 340.573714 
L 621.541061 306.048279 
L 622.760318 208.81918 
L 623.979576 113.460434 
L 624.589205 81.458434 
L 625.198833 65.705822 
L 625.808462 67.837635 
L 626.418091 86.967655 
L 627.02772 120.018478 
L 629.466235 293.38014 
L 630.075864 321.961244 
L 630.685492 336.742146 
L 631.295121 336.010527 
L 631.90475 320.02789 
L 632.514379 291.114722 
L 633.733636 211.418165 
L 634.952894 135.246257 
L 635.562523 109.009864 
L 636.172152 94.466228 
L 636.78178 93.067929 
L 637.391409 104.928207 
L 638.001038 128.649127 
L 639.220295 199.197576 
L 640.439553 272.805602 
L 641.049182 300.578458 
L 641.658811 317.787026 
L 642.268439 321.755772 
L 642.878068 310.853544 
L 643.487697 285.307105 
L 644.706955 204.697566 
L 645.316583 163.044746 
L 645.926212 130.741376 
L 646.535841 113.270653 
L 647.14547 112.352404 
L 647.755098 125.769761 
L 648.974356 175.215805 
L 650.193614 223.05612 
L 650.803242 240.260619 
L 651.412871 252.220109 
L 652.0225 258.789089 
L 652.632129 259.909678 
L 653.241758 255.887947 
L 653.851386 247.673601 
L 657.509159 183.404407 
L 658.118788 176.49847 
L 658.728417 172.534566 
L 659.338045 172.477281 
L 659.947674 176.637303 
L 660.557303 184.387061 
L 662.995818 222.668561 
L 663.605447 228.868175 
L 664.215076 233.055559 
L 664.824705 235.124118 
L 665.434333 234.915327 
L 666.043962 232.342538 
L 666.653591 227.552295 
L 667.872848 213.383521 
L 669.092106 198.283511 
L 669.701735 192.31575 
L 670.311364 188.150029 
L 670.920992 186.062661 
L 671.530621 186.084064 
L 672.14025 188.051822 
L 672.749879 191.711693 
L 673.359508 196.801997 
L 674.578765 210.04474 
L 675.798023 223.430982 
L 676.407652 227.933944 
L 677.01728 229.945912 
L 677.626909 229.303683 
L 678.236538 226.417735 
L 678.846167 222.021291 
L 680.065424 211.166839 
L 681.894311 194.469699 
L 682.503939 191.002779 
L 683.113568 189.961164 
L 683.723197 191.574069 
L 684.332826 195.255952 
L 685.552083 204.232592 
L 686.771341 211.003845 
L 687.990598 217.743509 
L 688.600227 221.220571 
L 689.209856 223.582571 
L 689.819485 223.775103 
L 690.429114 221.424911 
L 692.867629 204.836631 
L 693.477258 202.806637 
L 695.306144 197.808819 
L 695.915773 196.752081 
L 696.525402 197.000009 
L 697.13503 198.876489 
L 697.744659 202.164593 
L 699.573545 214.459024 
L 700.183174 217.687906 
L 700.792803 219.88852 
L 701.402432 220.703799 
L 702.012061 219.891329 
L 702.621689 217.550167 
L 704.450576 207.639685 
L 705.060205 205.320794 
L 706.279462 201.939528 
L 706.889091 200.47559 
L 707.49872 199.50067 
L 708.108348 199.586839 
L 708.717977 201.065508 
L 710.546864 209.240751 
L 711.156492 210.904855 
L 712.985379 214.020471 
L 713.595008 215.400307 
L 714.204636 216.287082 
L 714.814265 215.98251 
L 715.423894 214.271647 
L 717.25278 206.61256 
L 717.862409 205.068558 
L 719.691295 201.37406 
L 720.300924 200.739013 
L 720.910553 201.369435 
L 721.520182 203.477231 
L 722.739439 209.488792 
L 723.349068 211.47355 
L 723.958697 212.295985 
L 724.568326 212.531258 
L 725.177955 213.007323 
L 726.397212 215.335458 
L 727.006841 215.680055 
L 727.61647 214.232778 
L 728.226098 210.93759 
L 729.445356 203.10862 
L 730.054985 201.196261 
L 730.664614 201.280521 
L 731.274242 202.755015 
L 732.4935 206.331553 
L 734.932015 211.541254 
L 735.541644 212.089261 
L 736.151273 211.530507 
L 737.980159 206.945573 
L 738.589788 206.900212 
L 739.199417 207.92003 
L 740.418674 210.560547 
L 741.028303 211.109137 
L 741.637932 211.100487 
L 742.247561 210.80614 
L 742.857189 210.3402 
L 743.466818 209.523089 
L 744.076447 208.083009 
L 745.295705 203.858403 
L 745.905333 202.414983 
L 746.514962 202.403411 
L 747.124591 203.939693 
L 748.343848 208.929719 
L 748.953477 210.649659 
L 749.563106 211.423859 
L 750.782364 212.00508 
L 752.001621 213.513051 
L 752.61125 213.742841 
L 753.220879 212.792816 
L 753.830508 210.551864 
L 755.049765 204.607601 
L 755.659394 202.615318 
L 756.269023 201.964482 
L 756.878652 202.562227 
L 757.48828 203.975957 
L 759.317167 208.880601 
L 760.536424 211.21455 
L 761.146053 212.076336 
L 761.755682 212.664446 
L 762.365311 212.852396 
L 762.974939 212.486209 
L 763.584568 211.457684 
L 764.194197 209.811712 
L 765.413455 206.02567 
L 766.023083 204.948015 
L 766.632712 204.940011 
L 767.242341 205.907183 
L 767.85197 207.311225 
L 768.461598 208.422842 
L 769.071227 208.720394 
L 769.680856 208.200626 
L 770.290485 207.394409 
L 770.900114 207.050445 
L 771.509742 207.661596 
L 772.729 210.740196 
L 773.338629 211.616707 
L 773.948258 211.179228 
L 774.557886 209.553551 
L 775.167515 207.546542 
L 775.777144 206.235261 
L 776.386773 206.382735 
L 776.996402 208.001013 
L 777.60603 210.302645 
L 778.215659 212.075003 
L 778.825288 212.289755 
L 779.434917 210.637485 
L 780.654174 204.75685 
L 781.263803 203.056407 
L 781.873432 203.330708 
L 782.483061 205.382166 
L 783.702318 210.567518 
L 784.311947 211.552199 
L 784.921576 211.097569 
L 785.531205 209.901923 
L 786.140833 208.954305 
L 786.750462 208.900717 
L 787.96972 210.443554 
L 788.579348 210.421075 
L 789.188977 209.205058 
L 790.408235 205.51279 
L 791.017864 205.018491 
L 791.627492 206.030749 
L 792.84675 209.639383 
L 793.456379 210.193176 
L 794.066008 209.478299 
L 794.675636 208.228088 
L 795.285265 207.526125 
L 795.894894 208.050213 
L 797.114152 211.08911 
L 797.72378 211.421197 
L 798.333409 210.039472 
L 799.552667 204.89421 
L 800.162295 203.74621 
L 800.771924 204.622867 
L 802.600811 212.129385 
L 803.210439 212.67802 
L 803.820068 211.803119 
L 805.039326 208.747638 
L 805.648955 207.846607 
L 806.258583 207.506965 
L 807.477841 207.296927 
L 808.697098 206.844868 
L 809.306727 206.813499 
L 810.525985 207.294661 
L 812.354871 208.178886 
L 812.9645 209.029592 
L 813.574129 210.45922 
L 814.793386 213.754554 
L 815.403015 214.23244 
L 816.012644 213.089307 
L 816.622273 210.285621 
L 816.622273 210.285621 
" clip-path="url(#pfcb1a582c8)" style="fill: none; stroke: #000000; stroke-width: 1.5; stroke-linecap: square"/>
   </g>
   <g id="patch_3">
    <path d="M 48.49 404.12 
L 48.49 10.8 
" style="fill: none; stroke: #000000; stroke-width: 0.8; stroke-linejoin: miter; stroke-linecap: square"/>
   </g>
   <g id="patch_4">
    <path d="M 853.2 404.12 
L 853.2 10.8 
" style="fill: none; stroke: #000000; stroke-width: 0.8; stroke-linejoin: miter; stroke-linecap: square"/>
   </g>
   <g id="patch_5">
    <path d="M 48.49 404.12 
L 853.2 404.12 
" style="fill: none; stroke: #000000; stroke-width: 0.8; stroke-linejoin: miter; stroke-linecap: square"/>
   </g>
   <g id="patch_6">
    <path d="M 48.49 10.8 
L 853.2 10.8 
" style="fill: none; stroke: #000000; stroke-width: 0.8; stroke-linejoin: miter; stroke-linecap: square"/>
   </g>
  </g>
 </g>
 <defs>
  <clipPath id="pfcb1a582c8">
   <rect x="48.49" y="10.8" width="804.71" height="393.32"/>
  </clipPath>
 </defs>
</svg>
