<?xml version="1.0" encoding="utf-8" standalone="no"?>
<!DOCTYPE svg PUBLIC "-//W3C//DTD SVG 1.1//EN"
  "http://www.w3.org/Graphics/SVG/1.1/DTD/svg11.dtd">
<svg xmlns:xlink="http://www.w3.org/1999/xlink" width="1152pt" height="576pt" viewBox="0 0 1152 576" xmlns="http://www.w3.org/2000/svg" version="1.1">
 <metadata>
  <rdf:RDF xmlns:dc="http://purl.org/dc/elements/1.1/" xmlns:cc="http://creativecommons.org/ns#" xmlns:rdf="http://www.w3.org/1999/02/22-rdf-syntax-ns#">
   <cc:Work>
    <dc:type rdf:resource="http://purl.org/dc/dcmitype/StillImage"/>
    <dc:date>2022-06-03T15:48:18.859068</dc:date>
    <dc:format>image/svg+xml</dc:format>
    <dc:creator>
     <cc:Agent>
      <dc:title>Matplotlib v3.5.1, https://matplotlib.org/</dc:title>
     </cc:Agent>
    </dc:creator>
   </cc:Work>
  </rdf:RDF>
 </metadata>
 <defs>
  <style type="text/css">*{stroke-linejoin: round; stroke-linecap: butt}</style>
 </defs>
 <g id="figure_1">
  <g id="patch_1">
   <path d="M 0 576 
L 1152 576 
L 1152 0 
L 0 0 
z
" style="fill: #ffffff"/>
  </g>
  <g id="axes_1">
   <g id="patch_2">
    <path d="M 63.38 526.84 
L 1126.845 526.84 
L 1126.845 10.8 
L 63.38 10.8 
z
" style="fill: #ffffff"/>
   </g>
   <g id="matplotlib.axis_1">
    <g id="xtick_1">
     <g id="line2d_1">
      <defs>
       <path id="m152a64e66c" d="M 0 0 
L 0 3.5 
" style="stroke: #000000; stroke-width: 0.8"/>
      </defs>
      <g>
       <use xlink:href="#m152a64e66c" x="63.38" y="526.84" style="stroke: #000000; stroke-width: 0.8"/>
      </g>
     </g>
     <g id="text_1">
      <!-- 751.0 -->
      <g transform="translate(49.065938 541.438437)scale(0.1 -0.1)">
       <defs>
        <path id="DejaVuSans-37" d="M 525 4666 
L 3525 4666 
L 3525 4397 
L 1831 0 
L 1172 0 
L 2766 4134 
L 525 4134 
L 525 4666 
z
" transform="scale(0.015625)"/>
        <path id="DejaVuSans-35" d="M 691 4666 
L 3169 4666 
L 3169 4134 
L 1269 4134 
L 1269 2991 
Q 1406 3038 1543 3061 
Q 1681 3084 1819 3084 
Q 2600 3084 3056 2656 
Q 3513 2228 3513 1497 
Q 3513 744 3044 326 
Q 2575 -91 1722 -91 
Q 1428 -91 1123 -41 
Q 819 9 494 109 
L 494 744 
Q 775 591 1075 516 
Q 1375 441 1709 441 
Q 2250 441 2565 725 
Q 2881 1009 2881 1497 
Q 2881 1984 2565 2268 
Q 2250 2553 1709 2553 
Q 1456 2553 1204 2497 
Q 953 2441 691 2322 
L 691 4666 
z
" transform="scale(0.015625)"/>
        <path id="DejaVuSans-31" d="M 794 531 
L 1825 531 
L 1825 4091 
L 703 3866 
L 703 4441 
L 1819 4666 
L 2450 4666 
L 2450 531 
L 3481 531 
L 3481 0 
L 794 0 
L 794 531 
z
" transform="scale(0.015625)"/>
        <path id="DejaVuSans-2e" d="M 684 794 
L 1344 794 
L 1344 0 
L 684 0 
L 684 794 
z
" transform="scale(0.015625)"/>
        <path id="DejaVuSans-30" d="M 2034 4250 
Q 1547 4250 1301 3770 
Q 1056 3291 1056 2328 
Q 1056 1369 1301 889 
Q 1547 409 2034 409 
Q 2525 409 2770 889 
Q 3016 1369 3016 2328 
Q 3016 3291 2770 3770 
Q 2525 4250 2034 4250 
z
M 2034 4750 
Q 2819 4750 3233 4129 
Q 3647 3509 3647 2328 
Q 3647 1150 3233 529 
Q 2819 -91 2034 -91 
Q 1250 -91 836 529 
Q 422 1150 422 2328 
Q 422 3509 836 4129 
Q 1250 4750 2034 4750 
z
" transform="scale(0.015625)"/>
       </defs>
       <use xlink:href="#DejaVuSans-37"/>
       <use xlink:href="#DejaVuSans-35" x="63.623047"/>
       <use xlink:href="#DejaVuSans-31" x="127.246094"/>
       <use xlink:href="#DejaVuSans-2e" x="190.869141"/>
       <use xlink:href="#DejaVuSans-30" x="222.65625"/>
      </g>
     </g>
    </g>
    <g id="xtick_2">
     <g id="line2d_2">
      <g>
       <use xlink:href="#m152a64e66c" x="240.624167" y="526.84" style="stroke: #000000; stroke-width: 0.8"/>
      </g>
     </g>
     <g id="text_2">
      <!-- 751.5 -->
      <g transform="translate(226.310104 541.438437)scale(0.1 -0.1)">
       <use xlink:href="#DejaVuSans-37"/>
       <use xlink:href="#DejaVuSans-35" x="63.623047"/>
       <use xlink:href="#DejaVuSans-31" x="127.246094"/>
       <use xlink:href="#DejaVuSans-2e" x="190.869141"/>
       <use xlink:href="#DejaVuSans-35" x="222.65625"/>
      </g>
     </g>
    </g>
    <g id="xtick_3">
     <g id="line2d_3">
      <g>
       <use xlink:href="#m152a64e66c" x="417.868333" y="526.84" style="stroke: #000000; stroke-width: 0.8"/>
      </g>
     </g>
     <g id="text_3">
      <!-- 752.0 -->
      <g transform="translate(403.554271 541.438437)scale(0.1 -0.1)">
       <defs>
        <path id="DejaVuSans-32" d="M 1228 531 
L 3431 531 
L 3431 0 
L 469 0 
L 469 531 
Q 828 903 1448 1529 
Q 2069 2156 2228 2338 
Q 2531 2678 2651 2914 
Q 2772 3150 2772 3378 
Q 2772 3750 2511 3984 
Q 2250 4219 1831 4219 
Q 1534 4219 1204 4116 
Q 875 4013 500 3803 
L 500 4441 
Q 881 4594 1212 4672 
Q 1544 4750 1819 4750 
Q 2544 4750 2975 4387 
Q 3406 4025 3406 3419 
Q 3406 3131 3298 2873 
Q 3191 2616 2906 2266 
Q 2828 2175 2409 1742 
Q 1991 1309 1228 531 
z
" transform="scale(0.015625)"/>
       </defs>
       <use xlink:href="#DejaVuSans-37"/>
       <use xlink:href="#DejaVuSans-35" x="63.623047"/>
       <use xlink:href="#DejaVuSans-32" x="127.246094"/>
       <use xlink:href="#DejaVuSans-2e" x="190.869141"/>
       <use xlink:href="#DejaVuSans-30" x="222.65625"/>
      </g>
     </g>
    </g>
    <g id="xtick_4">
     <g id="line2d_4">
      <g>
       <use xlink:href="#m152a64e66c" x="595.1125" y="526.84" style="stroke: #000000; stroke-width: 0.8"/>
      </g>
     </g>
     <g id="text_4">
      <!-- 752.5 -->
      <g transform="translate(580.798437 541.438437)scale(0.1 -0.1)">
       <use xlink:href="#DejaVuSans-37"/>
       <use xlink:href="#DejaVuSans-35" x="63.623047"/>
       <use xlink:href="#DejaVuSans-32" x="127.246094"/>
       <use xlink:href="#DejaVuSans-2e" x="190.869141"/>
       <use xlink:href="#DejaVuSans-35" x="222.65625"/>
      </g>
     </g>
    </g>
    <g id="xtick_5">
     <g id="line2d_5">
      <g>
       <use xlink:href="#m152a64e66c" x="772.356667" y="526.84" style="stroke: #000000; stroke-width: 0.8"/>
      </g>
     </g>
     <g id="text_5">
      <!-- 753.0 -->
      <g transform="translate(758.042604 541.438437)scale(0.1 -0.1)">
       <defs>
        <path id="DejaVuSans-33" d="M 2597 2516 
Q 3050 2419 3304 2112 
Q 3559 1806 3559 1356 
Q 3559 666 3084 287 
Q 2609 -91 1734 -91 
Q 1441 -91 1130 -33 
Q 819 25 488 141 
L 488 750 
Q 750 597 1062 519 
Q 1375 441 1716 441 
Q 2309 441 2620 675 
Q 2931 909 2931 1356 
Q 2931 1769 2642 2001 
Q 2353 2234 1838 2234 
L 1294 2234 
L 1294 2753 
L 1863 2753 
Q 2328 2753 2575 2939 
Q 2822 3125 2822 3475 
Q 2822 3834 2567 4026 
Q 2313 4219 1838 4219 
Q 1578 4219 1281 4162 
Q 984 4106 628 3988 
L 628 4550 
Q 988 4650 1302 4700 
Q 1616 4750 1894 4750 
Q 2613 4750 3031 4423 
Q 3450 4097 3450 3541 
Q 3450 3153 3228 2886 
Q 3006 2619 2597 2516 
z
" transform="scale(0.015625)"/>
       </defs>
       <use xlink:href="#DejaVuSans-37"/>
       <use xlink:href="#DejaVuSans-35" x="63.623047"/>
       <use xlink:href="#DejaVuSans-33" x="127.246094"/>
       <use xlink:href="#DejaVuSans-2e" x="190.869141"/>
       <use xlink:href="#DejaVuSans-30" x="222.65625"/>
      </g>
     </g>
    </g>
    <g id="xtick_6">
     <g id="line2d_6">
      <g>
       <use xlink:href="#m152a64e66c" x="949.600833" y="526.84" style="stroke: #000000; stroke-width: 0.8"/>
      </g>
     </g>
     <g id="text_6">
      <!-- 753.5 -->
      <g transform="translate(935.286771 541.438437)scale(0.1 -0.1)">
       <use xlink:href="#DejaVuSans-37"/>
       <use xlink:href="#DejaVuSans-35" x="63.623047"/>
       <use xlink:href="#DejaVuSans-33" x="127.246094"/>
       <use xlink:href="#DejaVuSans-2e" x="190.869141"/>
       <use xlink:href="#DejaVuSans-35" x="222.65625"/>
      </g>
     </g>
    </g>
    <g id="xtick_7">
     <g id="line2d_7">
      <g>
       <use xlink:href="#m152a64e66c" x="1126.845" y="526.84" style="stroke: #000000; stroke-width: 0.8"/>
      </g>
     </g>
     <g id="text_7">
      <!-- 754.0 -->
      <g transform="translate(1112.530938 541.438437)scale(0.1 -0.1)">
       <defs>
        <path id="DejaVuSans-34" d="M 2419 4116 
L 825 1625 
L 2419 1625 
L 2419 4116 
z
M 2253 4666 
L 3047 4666 
L 3047 1625 
L 3713 1625 
L 3713 1100 
L 3047 1100 
L 3047 0 
L 2419 0 
L 2419 1100 
L 313 1100 
L 313 1709 
L 2253 4666 
z
" transform="scale(0.015625)"/>
       </defs>
       <use xlink:href="#DejaVuSans-37"/>
       <use xlink:href="#DejaVuSans-35" x="63.623047"/>
       <use xlink:href="#DejaVuSans-34" x="127.246094"/>
       <use xlink:href="#DejaVuSans-2e" x="190.869141"/>
       <use xlink:href="#DejaVuSans-30" x="222.65625"/>
      </g>
     </g>
    </g>
    <g id="text_8">
     <!-- TWT [ms] -->
     <g transform="translate(551.881563 561.195312)scale(0.18 -0.18)">
      <defs>
       <path id="DejaVuSans-54" d="M -19 4666 
L 3928 4666 
L 3928 4134 
L 2272 4134 
L 2272 0 
L 1638 0 
L 1638 4134 
L -19 4134 
L -19 4666 
z
" transform="scale(0.015625)"/>
       <path id="DejaVuSans-57" d="M 213 4666 
L 850 4666 
L 1831 722 
L 2809 4666 
L 3519 4666 
L 4500 722 
L 5478 4666 
L 6119 4666 
L 4947 0 
L 4153 0 
L 3169 4050 
L 2175 0 
L 1381 0 
L 213 4666 
z
" transform="scale(0.015625)"/>
       <path id="DejaVuSans-20" transform="scale(0.015625)"/>
       <path id="DejaVuSans-5b" d="M 550 4863 
L 1875 4863 
L 1875 4416 
L 1125 4416 
L 1125 -397 
L 1875 -397 
L 1875 -844 
L 550 -844 
L 550 4863 
z
" transform="scale(0.015625)"/>
       <path id="DejaVuSans-6d" d="M 3328 2828 
Q 3544 3216 3844 3400 
Q 4144 3584 4550 3584 
Q 5097 3584 5394 3201 
Q 5691 2819 5691 2113 
L 5691 0 
L 5113 0 
L 5113 2094 
Q 5113 2597 4934 2840 
Q 4756 3084 4391 3084 
Q 3944 3084 3684 2787 
Q 3425 2491 3425 1978 
L 3425 0 
L 2847 0 
L 2847 2094 
Q 2847 2600 2669 2842 
Q 2491 3084 2119 3084 
Q 1678 3084 1418 2786 
Q 1159 2488 1159 1978 
L 1159 0 
L 581 0 
L 581 3500 
L 1159 3500 
L 1159 2956 
Q 1356 3278 1631 3431 
Q 1906 3584 2284 3584 
Q 2666 3584 2933 3390 
Q 3200 3197 3328 2828 
z
" transform="scale(0.015625)"/>
       <path id="DejaVuSans-73" d="M 2834 3397 
L 2834 2853 
Q 2591 2978 2328 3040 
Q 2066 3103 1784 3103 
Q 1356 3103 1142 2972 
Q 928 2841 928 2578 
Q 928 2378 1081 2264 
Q 1234 2150 1697 2047 
L 1894 2003 
Q 2506 1872 2764 1633 
Q 3022 1394 3022 966 
Q 3022 478 2636 193 
Q 2250 -91 1575 -91 
Q 1294 -91 989 -36 
Q 684 19 347 128 
L 347 722 
Q 666 556 975 473 
Q 1284 391 1588 391 
Q 1994 391 2212 530 
Q 2431 669 2431 922 
Q 2431 1156 2273 1281 
Q 2116 1406 1581 1522 
L 1381 1569 
Q 847 1681 609 1914 
Q 372 2147 372 2553 
Q 372 3047 722 3315 
Q 1072 3584 1716 3584 
Q 2034 3584 2315 3537 
Q 2597 3491 2834 3397 
z
" transform="scale(0.015625)"/>
       <path id="DejaVuSans-5d" d="M 1947 4863 
L 1947 -844 
L 622 -844 
L 622 -397 
L 1369 -397 
L 1369 4416 
L 622 4416 
L 622 4863 
L 1947 4863 
z
" transform="scale(0.015625)"/>
      </defs>
      <use xlink:href="#DejaVuSans-54"/>
      <use xlink:href="#DejaVuSans-57" x="61.083984"/>
      <use xlink:href="#DejaVuSans-54" x="159.960938"/>
      <use xlink:href="#DejaVuSans-20" x="221.044922"/>
      <use xlink:href="#DejaVuSans-5b" x="252.832031"/>
      <use xlink:href="#DejaVuSans-6d" x="291.845703"/>
      <use xlink:href="#DejaVuSans-73" x="389.257812"/>
      <use xlink:href="#DejaVuSans-5d" x="441.357422"/>
     </g>
    </g>
   </g>
   <g id="matplotlib.axis_2">
    <g id="ytick_1">
     <g id="line2d_8">
      <defs>
       <path id="md5a3625ba3" d="M 0 0 
L -3.5 0 
" style="stroke: #000000; stroke-width: 0.8"/>
      </defs>
      <g>
       <use xlink:href="#md5a3625ba3" x="63.38" y="506.992308" style="stroke: #000000; stroke-width: 0.8"/>
      </g>
     </g>
     <g id="text_9">
      <!-- −0.6 -->
      <g transform="translate(32.097187 510.791526)scale(0.1 -0.1)">
       <defs>
        <path id="DejaVuSans-2212" d="M 678 2272 
L 4684 2272 
L 4684 1741 
L 678 1741 
L 678 2272 
z
" transform="scale(0.015625)"/>
        <path id="DejaVuSans-36" d="M 2113 2584 
Q 1688 2584 1439 2293 
Q 1191 2003 1191 1497 
Q 1191 994 1439 701 
Q 1688 409 2113 409 
Q 2538 409 2786 701 
Q 3034 994 3034 1497 
Q 3034 2003 2786 2293 
Q 2538 2584 2113 2584 
z
M 3366 4563 
L 3366 3988 
Q 3128 4100 2886 4159 
Q 2644 4219 2406 4219 
Q 1781 4219 1451 3797 
Q 1122 3375 1075 2522 
Q 1259 2794 1537 2939 
Q 1816 3084 2150 3084 
Q 2853 3084 3261 2657 
Q 3669 2231 3669 1497 
Q 3669 778 3244 343 
Q 2819 -91 2113 -91 
Q 1303 -91 875 529 
Q 447 1150 447 2328 
Q 447 3434 972 4092 
Q 1497 4750 2381 4750 
Q 2619 4750 2861 4703 
Q 3103 4656 3366 4563 
z
" transform="scale(0.015625)"/>
       </defs>
       <use xlink:href="#DejaVuSans-2212"/>
       <use xlink:href="#DejaVuSans-30" x="83.789062"/>
       <use xlink:href="#DejaVuSans-2e" x="147.412109"/>
       <use xlink:href="#DejaVuSans-36" x="179.199219"/>
      </g>
     </g>
    </g>
    <g id="ytick_2">
     <g id="line2d_9">
      <g>
       <use xlink:href="#md5a3625ba3" x="63.38" y="427.601538" style="stroke: #000000; stroke-width: 0.8"/>
      </g>
     </g>
     <g id="text_10">
      <!-- −0.4 -->
      <g transform="translate(32.097187 431.400757)scale(0.1 -0.1)">
       <use xlink:href="#DejaVuSans-2212"/>
       <use xlink:href="#DejaVuSans-30" x="83.789062"/>
       <use xlink:href="#DejaVuSans-2e" x="147.412109"/>
       <use xlink:href="#DejaVuSans-34" x="179.199219"/>
      </g>
     </g>
    </g>
    <g id="ytick_3">
     <g id="line2d_10">
      <g>
       <use xlink:href="#md5a3625ba3" x="63.38" y="348.210769" style="stroke: #000000; stroke-width: 0.8"/>
      </g>
     </g>
     <g id="text_11">
      <!-- −0.2 -->
      <g transform="translate(32.097187 352.009988)scale(0.1 -0.1)">
       <use xlink:href="#DejaVuSans-2212"/>
       <use xlink:href="#DejaVuSans-30" x="83.789062"/>
       <use xlink:href="#DejaVuSans-2e" x="147.412109"/>
       <use xlink:href="#DejaVuSans-32" x="179.199219"/>
      </g>
     </g>
    </g>
    <g id="ytick_4">
     <g id="line2d_11">
      <g>
       <use xlink:href="#md5a3625ba3" x="63.38" y="268.82" style="stroke: #000000; stroke-width: 0.8"/>
      </g>
     </g>
     <g id="text_12">
      <!-- 0.0 -->
      <g transform="translate(40.476875 272.619219)scale(0.1 -0.1)">
       <use xlink:href="#DejaVuSans-30"/>
       <use xlink:href="#DejaVuSans-2e" x="63.623047"/>
       <use xlink:href="#DejaVuSans-30" x="95.410156"/>
      </g>
     </g>
    </g>
    <g id="ytick_5">
     <g id="line2d_12">
      <g>
       <use xlink:href="#md5a3625ba3" x="63.38" y="189.429231" style="stroke: #000000; stroke-width: 0.8"/>
      </g>
     </g>
     <g id="text_13">
      <!-- 0.2 -->
      <g transform="translate(40.476875 193.22845)scale(0.1 -0.1)">
       <use xlink:href="#DejaVuSans-30"/>
       <use xlink:href="#DejaVuSans-2e" x="63.623047"/>
       <use xlink:href="#DejaVuSans-32" x="95.410156"/>
      </g>
     </g>
    </g>
    <g id="ytick_6">
     <g id="line2d_13">
      <g>
       <use xlink:href="#md5a3625ba3" x="63.38" y="110.038462" style="stroke: #000000; stroke-width: 0.8"/>
      </g>
     </g>
     <g id="text_14">
      <!-- 0.4 -->
      <g transform="translate(40.476875 113.83768)scale(0.1 -0.1)">
       <use xlink:href="#DejaVuSans-30"/>
       <use xlink:href="#DejaVuSans-2e" x="63.623047"/>
       <use xlink:href="#DejaVuSans-34" x="95.410156"/>
      </g>
     </g>
    </g>
    <g id="ytick_7">
     <g id="line2d_14">
      <g>
       <use xlink:href="#md5a3625ba3" x="63.38" y="30.647692" style="stroke: #000000; stroke-width: 0.8"/>
      </g>
     </g>
     <g id="text_15">
      <!-- 0.6 -->
      <g transform="translate(40.476875 34.446911)scale(0.1 -0.1)">
       <use xlink:href="#DejaVuSans-30"/>
       <use xlink:href="#DejaVuSans-2e" x="63.623047"/>
       <use xlink:href="#DejaVuSans-36" x="95.410156"/>
      </g>
     </g>
    </g>
    <g id="text_16">
     <!-- amplitude [-] -->
     <g transform="translate(24.35375 327.429688)rotate(-90)scale(0.18 -0.18)">
      <defs>
       <path id="DejaVuSans-61" d="M 2194 1759 
Q 1497 1759 1228 1600 
Q 959 1441 959 1056 
Q 959 750 1161 570 
Q 1363 391 1709 391 
Q 2188 391 2477 730 
Q 2766 1069 2766 1631 
L 2766 1759 
L 2194 1759 
z
M 3341 1997 
L 3341 0 
L 2766 0 
L 2766 531 
Q 2569 213 2275 61 
Q 1981 -91 1556 -91 
Q 1019 -91 701 211 
Q 384 513 384 1019 
Q 384 1609 779 1909 
Q 1175 2209 1959 2209 
L 2766 2209 
L 2766 2266 
Q 2766 2663 2505 2880 
Q 2244 3097 1772 3097 
Q 1472 3097 1187 3025 
Q 903 2953 641 2809 
L 641 3341 
Q 956 3463 1253 3523 
Q 1550 3584 1831 3584 
Q 2591 3584 2966 3190 
Q 3341 2797 3341 1997 
z
" transform="scale(0.015625)"/>
       <path id="DejaVuSans-70" d="M 1159 525 
L 1159 -1331 
L 581 -1331 
L 581 3500 
L 1159 3500 
L 1159 2969 
Q 1341 3281 1617 3432 
Q 1894 3584 2278 3584 
Q 2916 3584 3314 3078 
Q 3713 2572 3713 1747 
Q 3713 922 3314 415 
Q 2916 -91 2278 -91 
Q 1894 -91 1617 61 
Q 1341 213 1159 525 
z
M 3116 1747 
Q 3116 2381 2855 2742 
Q 2594 3103 2138 3103 
Q 1681 3103 1420 2742 
Q 1159 2381 1159 1747 
Q 1159 1113 1420 752 
Q 1681 391 2138 391 
Q 2594 391 2855 752 
Q 3116 1113 3116 1747 
z
" transform="scale(0.015625)"/>
       <path id="DejaVuSans-6c" d="M 603 4863 
L 1178 4863 
L 1178 0 
L 603 0 
L 603 4863 
z
" transform="scale(0.015625)"/>
       <path id="DejaVuSans-69" d="M 603 3500 
L 1178 3500 
L 1178 0 
L 603 0 
L 603 3500 
z
M 603 4863 
L 1178 4863 
L 1178 4134 
L 603 4134 
L 603 4863 
z
" transform="scale(0.015625)"/>
       <path id="DejaVuSans-74" d="M 1172 4494 
L 1172 3500 
L 2356 3500 
L 2356 3053 
L 1172 3053 
L 1172 1153 
Q 1172 725 1289 603 
Q 1406 481 1766 481 
L 2356 481 
L 2356 0 
L 1766 0 
Q 1100 0 847 248 
Q 594 497 594 1153 
L 594 3053 
L 172 3053 
L 172 3500 
L 594 3500 
L 594 4494 
L 1172 4494 
z
" transform="scale(0.015625)"/>
       <path id="DejaVuSans-75" d="M 544 1381 
L 544 3500 
L 1119 3500 
L 1119 1403 
Q 1119 906 1312 657 
Q 1506 409 1894 409 
Q 2359 409 2629 706 
Q 2900 1003 2900 1516 
L 2900 3500 
L 3475 3500 
L 3475 0 
L 2900 0 
L 2900 538 
Q 2691 219 2414 64 
Q 2138 -91 1772 -91 
Q 1169 -91 856 284 
Q 544 659 544 1381 
z
M 1991 3584 
L 1991 3584 
z
" transform="scale(0.015625)"/>
       <path id="DejaVuSans-64" d="M 2906 2969 
L 2906 4863 
L 3481 4863 
L 3481 0 
L 2906 0 
L 2906 525 
Q 2725 213 2448 61 
Q 2172 -91 1784 -91 
Q 1150 -91 751 415 
Q 353 922 353 1747 
Q 353 2572 751 3078 
Q 1150 3584 1784 3584 
Q 2172 3584 2448 3432 
Q 2725 3281 2906 2969 
z
M 947 1747 
Q 947 1113 1208 752 
Q 1469 391 1925 391 
Q 2381 391 2643 752 
Q 2906 1113 2906 1747 
Q 2906 2381 2643 2742 
Q 2381 3103 1925 3103 
Q 1469 3103 1208 2742 
Q 947 2381 947 1747 
z
" transform="scale(0.015625)"/>
       <path id="DejaVuSans-65" d="M 3597 1894 
L 3597 1613 
L 953 1613 
Q 991 1019 1311 708 
Q 1631 397 2203 397 
Q 2534 397 2845 478 
Q 3156 559 3463 722 
L 3463 178 
Q 3153 47 2828 -22 
Q 2503 -91 2169 -91 
Q 1331 -91 842 396 
Q 353 884 353 1716 
Q 353 2575 817 3079 
Q 1281 3584 2069 3584 
Q 2775 3584 3186 3129 
Q 3597 2675 3597 1894 
z
M 3022 2063 
Q 3016 2534 2758 2815 
Q 2500 3097 2075 3097 
Q 1594 3097 1305 2825 
Q 1016 2553 972 2059 
L 3022 2063 
z
" transform="scale(0.015625)"/>
       <path id="DejaVuSans-2d" d="M 313 2009 
L 1997 2009 
L 1997 1497 
L 313 1497 
L 313 2009 
z
" transform="scale(0.015625)"/>
      </defs>
      <use xlink:href="#DejaVuSans-61"/>
      <use xlink:href="#DejaVuSans-6d" x="61.279297"/>
      <use xlink:href="#DejaVuSans-70" x="158.691406"/>
      <use xlink:href="#DejaVuSans-6c" x="222.167969"/>
      <use xlink:href="#DejaVuSans-69" x="249.951172"/>
      <use xlink:href="#DejaVuSans-74" x="277.734375"/>
      <use xlink:href="#DejaVuSans-75" x="316.943359"/>
      <use xlink:href="#DejaVuSans-64" x="380.322266"/>
      <use xlink:href="#DejaVuSans-65" x="443.798828"/>
      <use xlink:href="#DejaVuSans-20" x="505.322266"/>
      <use xlink:href="#DejaVuSans-5b" x="537.109375"/>
      <use xlink:href="#DejaVuSans-2d" x="576.123047"/>
      <use xlink:href="#DejaVuSans-5d" x="612.207031"/>
     </g>
    </g>
   </g>
   <g id="line2d_15">
    <path d="M 54.517792 280.486479 
L 63.38 284.310679 
L 72.242208 285.060728 
L 81.104417 282.796792 
L 89.966625 278.538356 
L 98.828833 273.77858 
L 107.691042 269.764831 
L 116.55325 266.929321 
L 125.415458 264.798745 
L 134.277667 262.455698 
L 143.139875 259.299904 
L 152.002083 255.652754 
L 160.864292 252.802101 
L 169.7265 252.390128 
L 178.588708 255.446729 
L 187.450917 261.629067 
L 196.313125 269.170597 
L 205.175333 275.668421 
L 214.037542 279.338133 
L 222.89975 280.030851 
L 231.761958 279.360137 
L 240.624167 279.743046 
L 249.486375 282.792997 
L 258.348583 287.957082 
L 267.210792 292.274928 
L 276.073 291.602758 
L 284.935208 282.840769 
L 293.797417 266.053957 
L 302.659625 245.27139 
L 311.521833 227.307126 
L 320.384042 218.935058 
L 329.24625 223.677794 
L 338.108458 239.831604 
L 346.970667 260.892992 
L 355.832875 278.434865 
L 364.695083 286.214948 
L 373.557292 283.524637 
L 382.4195 275.94929 
L 391.281708 272.825248 
L 400.143917 282.283736 
L 409.006125 306.117935 
L 417.868333 337.100873 
L 426.730542 360.521162 
L 435.59275 359.871906 
L 444.454958 324.603488 
L 453.317167 256.581987 
L 462.179375 172.059587 
L 471.041583 97.628162 
L 479.903792 61.158293 
L 488.766 81.036086 
L 497.628208 158.037137 
L 506.490417 273.376148 
L 515.352625 394.101523 
L 524.214833 484.041099 
L 533.077042 516.214295 
L 541.93925 482.00144 
L 550.801458 393.659845 
L 559.663667 279.435384 
L 568.525875 173.382304 
L 577.388083 103.89898 
L 586.250292 85.190952 
L 595.1125 114.431501 
L 603.974708 175.013362 
L 612.836917 244.006256 
L 621.699125 300.629259 
L 630.561333 332.601679 
L 639.423542 338.453236 
L 648.28575 325.629824 
L 657.147958 305.788294 
L 666.010167 289.483173 
L 674.872375 282.321489 
L 683.734583 283.788009 
L 692.596792 288.751799 
L 701.459 290.640627 
L 710.321208 284.768359 
L 719.183417 270.443094 
L 728.045625 251.139226 
L 736.907833 232.876034 
L 745.770042 221.651635 
L 754.63225 221.070911 
L 763.494458 231.105179 
L 772.356667 248.362148 
L 781.218875 267.594774 
L 790.081083 283.714845 
L 798.943292 293.470983 
L 807.8055 296.198159 
L 816.667708 293.49685 
L 825.529917 288.139533 
L 834.392125 282.754738 
L 843.254333 278.835838 
L 852.116542 276.407969 
L 860.97875 274.380937 
L 869.840958 271.347097 
L 878.703167 266.441575 
L 887.565375 259.898107 
L 896.427583 253.082689 
L 905.289792 248.005925 
L 914.152 246.52348 
L 923.014208 249.557067 
L 931.876417 256.658938 
L 940.738625 266.10231 
L 949.600833 275.46275 
L 958.463042 282.452808 
L 967.32525 285.672265 
L 976.187458 284.983491 
L 985.049667 281.391481 
L 993.911875 276.520612 
L 1002.774083 271.937645 
L 1011.636292 268.607966 
L 1020.4985 266.684807 
L 1029.360708 265.670806 
L 1038.222917 264.834281 
L 1047.085125 263.671953 
L 1055.947333 262.211534 
L 1064.809542 261.028351 
L 1073.67175 260.97287 
L 1082.533958 262.725665 
L 1091.396167 266.373056 
L 1100.258375 271.201906 
L 1109.120583 275.83695 
L 1117.982792 278.706541 
L 1126.845 278.671787 
L 1135.707208 275.556131 
" clip-path="url(#pa97b204e49)" style="fill: none; stroke: #000000; stroke-linecap: square"/>
   </g>
   <g id="line2d_16">
    <defs>
     <path id="mc8cf9887f1" d="M 0 3 
C 0.795609 3 1.55874 2.683901 2.12132 2.12132 
C 2.683901 1.55874 3 0.795609 3 0 
C 3 -0.795609 2.683901 -1.55874 2.12132 -2.12132 
C 1.55874 -2.683901 0.795609 -3 0 -3 
C -0.795609 -3 -1.55874 -2.683901 -2.12132 -2.12132 
C -2.683901 -1.55874 -3 -0.795609 -3 0 
C -3 0.795609 -2.683901 1.55874 -2.12132 2.12132 
C -1.55874 2.683901 -0.795609 3 0 3 
z
" style="stroke: #000000"/>
    </defs>
    <g clip-path="url(#pa97b204e49)">
     <use xlink:href="#mc8cf9887f1" x="54.517792" y="280.486479" style="stroke: #000000"/>
     <use xlink:href="#mc8cf9887f1" x="63.38" y="284.310679" style="stroke: #000000"/>
     <use xlink:href="#mc8cf9887f1" x="72.242208" y="285.060728" style="stroke: #000000"/>
     <use xlink:href="#mc8cf9887f1" x="81.104417" y="282.796792" style="stroke: #000000"/>
     <use xlink:href="#mc8cf9887f1" x="89.966625" y="278.538356" style="stroke: #000000"/>
     <use xlink:href="#mc8cf9887f1" x="98.828833" y="273.77858" style="stroke: #000000"/>
     <use xlink:href="#mc8cf9887f1" x="107.691042" y="269.764831" style="stroke: #000000"/>
     <use xlink:href="#mc8cf9887f1" x="116.55325" y="266.929321" style="stroke: #000000"/>
     <use xlink:href="#mc8cf9887f1" x="125.415458" y="264.798745" style="stroke: #000000"/>
     <use xlink:href="#mc8cf9887f1" x="134.277667" y="262.455698" style="stroke: #000000"/>
     <use xlink:href="#mc8cf9887f1" x="143.139875" y="259.299904" style="stroke: #000000"/>
     <use xlink:href="#mc8cf9887f1" x="152.002083" y="255.652754" style="stroke: #000000"/>
     <use xlink:href="#mc8cf9887f1" x="160.864292" y="252.802101" style="stroke: #000000"/>
     <use xlink:href="#mc8cf9887f1" x="169.7265" y="252.390128" style="stroke: #000000"/>
     <use xlink:href="#mc8cf9887f1" x="178.588708" y="255.446729" style="stroke: #000000"/>
     <use xlink:href="#mc8cf9887f1" x="187.450917" y="261.629067" style="stroke: #000000"/>
     <use xlink:href="#mc8cf9887f1" x="196.313125" y="269.170597" style="stroke: #000000"/>
     <use xlink:href="#mc8cf9887f1" x="205.175333" y="275.668421" style="stroke: #000000"/>
     <use xlink:href="#mc8cf9887f1" x="214.037542" y="279.338133" style="stroke: #000000"/>
     <use xlink:href="#mc8cf9887f1" x="222.89975" y="280.030851" style="stroke: #000000"/>
     <use xlink:href="#mc8cf9887f1" x="231.761958" y="279.360137" style="stroke: #000000"/>
     <use xlink:href="#mc8cf9887f1" x="240.624167" y="279.743046" style="stroke: #000000"/>
     <use xlink:href="#mc8cf9887f1" x="249.486375" y="282.792997" style="stroke: #000000"/>
     <use xlink:href="#mc8cf9887f1" x="258.348583" y="287.957082" style="stroke: #000000"/>
     <use xlink:href="#mc8cf9887f1" x="267.210792" y="292.274928" style="stroke: #000000"/>
     <use xlink:href="#mc8cf9887f1" x="276.073" y="291.602758" style="stroke: #000000"/>
     <use xlink:href="#mc8cf9887f1" x="284.935208" y="282.840769" style="stroke: #000000"/>
     <use xlink:href="#mc8cf9887f1" x="293.797417" y="266.053957" style="stroke: #000000"/>
     <use xlink:href="#mc8cf9887f1" x="302.659625" y="245.27139" style="stroke: #000000"/>
     <use xlink:href="#mc8cf9887f1" x="311.521833" y="227.307126" style="stroke: #000000"/>
     <use xlink:href="#mc8cf9887f1" x="320.384042" y="218.935058" style="stroke: #000000"/>
     <use xlink:href="#mc8cf9887f1" x="329.24625" y="223.677794" style="stroke: #000000"/>
     <use xlink:href="#mc8cf9887f1" x="338.108458" y="239.831604" style="stroke: #000000"/>
     <use xlink:href="#mc8cf9887f1" x="346.970667" y="260.892992" style="stroke: #000000"/>
     <use xlink:href="#mc8cf9887f1" x="355.832875" y="278.434865" style="stroke: #000000"/>
     <use xlink:href="#mc8cf9887f1" x="364.695083" y="286.214948" style="stroke: #000000"/>
     <use xlink:href="#mc8cf9887f1" x="373.557292" y="283.524637" style="stroke: #000000"/>
     <use xlink:href="#mc8cf9887f1" x="382.4195" y="275.94929" style="stroke: #000000"/>
     <use xlink:href="#mc8cf9887f1" x="391.281708" y="272.825248" style="stroke: #000000"/>
     <use xlink:href="#mc8cf9887f1" x="400.143917" y="282.283736" style="stroke: #000000"/>
     <use xlink:href="#mc8cf9887f1" x="409.006125" y="306.117935" style="stroke: #000000"/>
     <use xlink:href="#mc8cf9887f1" x="417.868333" y="337.100873" style="stroke: #000000"/>
     <use xlink:href="#mc8cf9887f1" x="426.730542" y="360.521162" style="stroke: #000000"/>
     <use xlink:href="#mc8cf9887f1" x="435.59275" y="359.871906" style="stroke: #000000"/>
     <use xlink:href="#mc8cf9887f1" x="444.454958" y="324.603488" style="stroke: #000000"/>
     <use xlink:href="#mc8cf9887f1" x="453.317167" y="256.581987" style="stroke: #000000"/>
     <use xlink:href="#mc8cf9887f1" x="462.179375" y="172.059587" style="stroke: #000000"/>
     <use xlink:href="#mc8cf9887f1" x="471.041583" y="97.628162" style="stroke: #000000"/>
     <use xlink:href="#mc8cf9887f1" x="479.903792" y="61.158293" style="stroke: #000000"/>
     <use xlink:href="#mc8cf9887f1" x="488.766" y="81.036086" style="stroke: #000000"/>
     <use xlink:href="#mc8cf9887f1" x="497.628208" y="158.037137" style="stroke: #000000"/>
     <use xlink:href="#mc8cf9887f1" x="506.490417" y="273.376148" style="stroke: #000000"/>
     <use xlink:href="#mc8cf9887f1" x="515.352625" y="394.101523" style="stroke: #000000"/>
     <use xlink:href="#mc8cf9887f1" x="524.214833" y="484.041099" style="stroke: #000000"/>
     <use xlink:href="#mc8cf9887f1" x="533.077042" y="516.214295" style="stroke: #000000"/>
     <use xlink:href="#mc8cf9887f1" x="541.93925" y="482.00144" style="stroke: #000000"/>
     <use xlink:href="#mc8cf9887f1" x="550.801458" y="393.659845" style="stroke: #000000"/>
     <use xlink:href="#mc8cf9887f1" x="559.663667" y="279.435384" style="stroke: #000000"/>
     <use xlink:href="#mc8cf9887f1" x="568.525875" y="173.382304" style="stroke: #000000"/>
     <use xlink:href="#mc8cf9887f1" x="577.388083" y="103.89898" style="stroke: #000000"/>
     <use xlink:href="#mc8cf9887f1" x="586.250292" y="85.190952" style="stroke: #000000"/>
     <use xlink:href="#mc8cf9887f1" x="595.1125" y="114.431501" style="stroke: #000000"/>
     <use xlink:href="#mc8cf9887f1" x="603.974708" y="175.013362" style="stroke: #000000"/>
     <use xlink:href="#mc8cf9887f1" x="612.836917" y="244.006256" style="stroke: #000000"/>
     <use xlink:href="#mc8cf9887f1" x="621.699125" y="300.629259" style="stroke: #000000"/>
     <use xlink:href="#mc8cf9887f1" x="630.561333" y="332.601679" style="stroke: #000000"/>
     <use xlink:href="#mc8cf9887f1" x="639.423542" y="338.453236" style="stroke: #000000"/>
     <use xlink:href="#mc8cf9887f1" x="648.28575" y="325.629824" style="stroke: #000000"/>
     <use xlink:href="#mc8cf9887f1" x="657.147958" y="305.788294" style="stroke: #000000"/>
     <use xlink:href="#mc8cf9887f1" x="666.010167" y="289.483173" style="stroke: #000000"/>
     <use xlink:href="#mc8cf9887f1" x="674.872375" y="282.321489" style="stroke: #000000"/>
     <use xlink:href="#mc8cf9887f1" x="683.734583" y="283.788009" style="stroke: #000000"/>
     <use xlink:href="#mc8cf9887f1" x="692.596792" y="288.751799" style="stroke: #000000"/>
     <use xlink:href="#mc8cf9887f1" x="701.459" y="290.640627" style="stroke: #000000"/>
     <use xlink:href="#mc8cf9887f1" x="710.321208" y="284.768359" style="stroke: #000000"/>
     <use xlink:href="#mc8cf9887f1" x="719.183417" y="270.443094" style="stroke: #000000"/>
     <use xlink:href="#mc8cf9887f1" x="728.045625" y="251.139226" style="stroke: #000000"/>
     <use xlink:href="#mc8cf9887f1" x="736.907833" y="232.876034" style="stroke: #000000"/>
     <use xlink:href="#mc8cf9887f1" x="745.770042" y="221.651635" style="stroke: #000000"/>
     <use xlink:href="#mc8cf9887f1" x="754.63225" y="221.070911" style="stroke: #000000"/>
     <use xlink:href="#mc8cf9887f1" x="763.494458" y="231.105179" style="stroke: #000000"/>
     <use xlink:href="#mc8cf9887f1" x="772.356667" y="248.362148" style="stroke: #000000"/>
     <use xlink:href="#mc8cf9887f1" x="781.218875" y="267.594774" style="stroke: #000000"/>
     <use xlink:href="#mc8cf9887f1" x="790.081083" y="283.714845" style="stroke: #000000"/>
     <use xlink:href="#mc8cf9887f1" x="798.943292" y="293.470983" style="stroke: #000000"/>
     <use xlink:href="#mc8cf9887f1" x="807.8055" y="296.198159" style="stroke: #000000"/>
     <use xlink:href="#mc8cf9887f1" x="816.667708" y="293.49685" style="stroke: #000000"/>
     <use xlink:href="#mc8cf9887f1" x="825.529917" y="288.139533" style="stroke: #000000"/>
     <use xlink:href="#mc8cf9887f1" x="834.392125" y="282.754738" style="stroke: #000000"/>
     <use xlink:href="#mc8cf9887f1" x="843.254333" y="278.835838" style="stroke: #000000"/>
     <use xlink:href="#mc8cf9887f1" x="852.116542" y="276.407969" style="stroke: #000000"/>
     <use xlink:href="#mc8cf9887f1" x="860.97875" y="274.380937" style="stroke: #000000"/>
     <use xlink:href="#mc8cf9887f1" x="869.840958" y="271.347097" style="stroke: #000000"/>
     <use xlink:href="#mc8cf9887f1" x="878.703167" y="266.441575" style="stroke: #000000"/>
     <use xlink:href="#mc8cf9887f1" x="887.565375" y="259.898107" style="stroke: #000000"/>
     <use xlink:href="#mc8cf9887f1" x="896.427583" y="253.082689" style="stroke: #000000"/>
     <use xlink:href="#mc8cf9887f1" x="905.289792" y="248.005925" style="stroke: #000000"/>
     <use xlink:href="#mc8cf9887f1" x="914.152" y="246.52348" style="stroke: #000000"/>
     <use xlink:href="#mc8cf9887f1" x="923.014208" y="249.557067" style="stroke: #000000"/>
     <use xlink:href="#mc8cf9887f1" x="931.876417" y="256.658938" style="stroke: #000000"/>
     <use xlink:href="#mc8cf9887f1" x="940.738625" y="266.10231" style="stroke: #000000"/>
     <use xlink:href="#mc8cf9887f1" x="949.600833" y="275.46275" style="stroke: #000000"/>
     <use xlink:href="#mc8cf9887f1" x="958.463042" y="282.452808" style="stroke: #000000"/>
     <use xlink:href="#mc8cf9887f1" x="967.32525" y="285.672265" style="stroke: #000000"/>
     <use xlink:href="#mc8cf9887f1" x="976.187458" y="284.983491" style="stroke: #000000"/>
     <use xlink:href="#mc8cf9887f1" x="985.049667" y="281.391481" style="stroke: #000000"/>
     <use xlink:href="#mc8cf9887f1" x="993.911875" y="276.520612" style="stroke: #000000"/>
     <use xlink:href="#mc8cf9887f1" x="1002.774083" y="271.937645" style="stroke: #000000"/>
     <use xlink:href="#mc8cf9887f1" x="1011.636292" y="268.607966" style="stroke: #000000"/>
     <use xlink:href="#mc8cf9887f1" x="1020.4985" y="266.684807" style="stroke: #000000"/>
     <use xlink:href="#mc8cf9887f1" x="1029.360708" y="265.670806" style="stroke: #000000"/>
     <use xlink:href="#mc8cf9887f1" x="1038.222917" y="264.834281" style="stroke: #000000"/>
     <use xlink:href="#mc8cf9887f1" x="1047.085125" y="263.671953" style="stroke: #000000"/>
     <use xlink:href="#mc8cf9887f1" x="1055.947333" y="262.211534" style="stroke: #000000"/>
     <use xlink:href="#mc8cf9887f1" x="1064.809542" y="261.028351" style="stroke: #000000"/>
     <use xlink:href="#mc8cf9887f1" x="1073.67175" y="260.97287" style="stroke: #000000"/>
     <use xlink:href="#mc8cf9887f1" x="1082.533958" y="262.725665" style="stroke: #000000"/>
     <use xlink:href="#mc8cf9887f1" x="1091.396167" y="266.373056" style="stroke: #000000"/>
     <use xlink:href="#mc8cf9887f1" x="1100.258375" y="271.201906" style="stroke: #000000"/>
     <use xlink:href="#mc8cf9887f1" x="1109.120583" y="275.83695" style="stroke: #000000"/>
     <use xlink:href="#mc8cf9887f1" x="1117.982792" y="278.706541" style="stroke: #000000"/>
     <use xlink:href="#mc8cf9887f1" x="1126.845" y="278.671787" style="stroke: #000000"/>
     <use xlink:href="#mc8cf9887f1" x="1135.707208" y="275.556131" style="stroke: #000000"/>
    </g>
   </g>
   <g id="line2d_17">
    <path d="M 54.517792 252.112954 
L 63.38 252.159006 
L 72.242208 252.566427 
L 81.104417 253.33005 
L 89.966625 254.395749 
L 98.828833 255.64345 
L 107.691042 256.865758 
L 116.55325 257.75993 
L 125.415458 257.995359 
L 134.277667 257.402524 
L 143.139875 256.113519 
L 152.002083 254.457503 
L 160.864292 252.781869 
L 169.7265 251.374584 
L 178.588708 250.456235 
L 187.450917 250.184693 
L 196.313125 250.652199 
L 205.175333 251.868619 
L 214.037542 253.716851 
L 222.89975 255.842968 
L 231.761958 257.428554 
L 240.624167 257.152674 
L 249.486375 254.338231 
L 258.348583 249.676936 
L 267.210792 244.090599 
L 276.073 238.222382 
L 284.935208 232.539233 
L 293.797417 227.429299 
L 302.659625 223.239847 
L 311.521833 220.286587 
L 320.384042 218.851662 
L 329.24625 219.176186 
L 338.108458 221.44976 
L 346.970667 225.794786 
L 355.832875 232.235464 
L 364.695083 240.605467 
L 373.557292 250.10995 
L 382.4195 256.373849 
L 391.281708 249.280632 
L 400.143917 234.133641 
L 409.006125 216.14522 
L 417.868333 196.596128 
L 426.730542 176.111306 
L 435.59275 155.199286 
L 444.454958 134.346796 
L 453.317167 114.03486 
L 462.179375 94.735301 
L 471.041583 76.900243 
L 479.903792 60.950106 
L 488.766 47.260616 
L 497.628208 36.151067 
L 506.490417 27.874105 
L 515.352625 22.60756 
L 524.214833 20.449481 
L 533.077042 21.415649 
L 541.93925 25.440573 
L 550.801458 32.381746 
L 559.663667 42.026533 
L 568.525875 54.101421 
L 577.388083 68.283401 
L 586.250292 84.212208 
L 595.1125 101.503186 
L 603.974708 119.75935 
L 612.836917 138.582272 
L 621.699125 157.5806 
L 630.561333 176.374308 
L 639.423542 194.591432 
L 648.28575 211.847807 
L 657.147958 227.677321 
L 666.010167 241.284331 
L 674.872375 250.64647 
L 683.734583 251.850415 
L 692.596792 246.214035 
L 701.459 239.022165 
L 710.321208 232.462165 
L 719.183417 227.163611 
L 728.045625 223.306839 
L 736.907833 220.90995 
L 745.770042 219.912252 
L 754.63225 220.20509 
L 763.494458 221.646756 
L 772.356667 224.071661 
L 781.218875 227.296984 
L 790.081083 231.127494 
L 798.943292 235.357827 
L 807.8055 239.771084 
L 816.667708 244.13069 
L 825.529917 248.162754 
L 834.392125 251.531529 
L 843.254333 253.844034 
L 852.116542 254.786889 
L 860.97875 254.397623 
L 869.840958 253.102439 
L 878.703167 251.411922 
L 887.565375 249.704398 
L 896.427583 248.211829 
L 905.289792 247.0667 
L 914.152 246.339656 
L 923.014208 246.061284 
L 931.876417 246.233797 
L 940.738625 246.837581 
L 949.600833 247.835382 
L 958.463042 249.175307 
L 967.32525 250.793538 
L 976.187458 252.616373 
L 985.049667 254.561614 
L 993.911875 256.538191 
L 1002.774083 258.442842 
L 1011.636292 260.152948 
L 1020.4985 261.518941 
L 1029.360708 262.379017 
L 1038.222917 262.637307 
L 1047.085125 262.364038 
L 1055.947333 261.760591 
L 1064.809542 261.028215 
L 1073.67175 260.304575 
L 1082.533958 259.669432 
L 1091.396167 259.164425 
L 1100.258375 258.807264 
L 1109.120583 258.600095 
L 1117.982792 258.534328 
L 1126.845 258.594106 
L 1135.707208 258.759195 
" clip-path="url(#pa97b204e49)" style="fill: none; stroke: #000000; stroke-width: 2; stroke-linecap: square"/>
   </g>
   <g id="line2d_18">
    <defs>
     <path id="m57052b1261" d="M 0 3 
C 0.795609 3 1.55874 2.683901 2.12132 2.12132 
C 2.683901 1.55874 3 0.795609 3 0 
C 3 -0.795609 2.683901 -1.55874 2.12132 -2.12132 
C 1.55874 -2.683901 0.795609 -3 0 -3 
C -0.795609 -3 -1.55874 -2.683901 -2.12132 -2.12132 
C -2.683901 -1.55874 -3 -0.795609 -3 0 
C -3 0.795609 -2.683901 1.55874 -2.12132 2.12132 
C -1.55874 2.683901 -0.795609 3 0 3 
z
" style="stroke: #0000ff"/>
    </defs>
    <g clip-path="url(#pa97b204e49)">
     <use xlink:href="#m57052b1261" x="45.655583" y="274.51322" style="fill: #0000ff; stroke: #0000ff"/>
     <use xlink:href="#m57052b1261" x="63.38" y="284.32364" style="fill: #0000ff; stroke: #0000ff"/>
     <use xlink:href="#m57052b1261" x="81.104417" y="282.798867" style="fill: #0000ff; stroke: #0000ff"/>
     <use xlink:href="#m57052b1261" x="98.828833" y="273.763671" style="fill: #0000ff; stroke: #0000ff"/>
     <use xlink:href="#m57052b1261" x="116.55325" y="266.922883" style="fill: #0000ff; stroke: #0000ff"/>
     <use xlink:href="#m57052b1261" x="134.277667" y="262.473332" style="fill: #0000ff; stroke: #0000ff"/>
     <use xlink:href="#m57052b1261" x="152.002083" y="255.669176" style="fill: #0000ff; stroke: #0000ff"/>
     <use xlink:href="#m57052b1261" x="169.7265" y="252.381127" style="fill: #0000ff; stroke: #0000ff"/>
     <use xlink:href="#m57052b1261" x="187.450917" y="261.61606" style="fill: #0000ff; stroke: #0000ff"/>
     <use xlink:href="#m57052b1261" x="205.175333" y="275.677779" style="fill: #0000ff; stroke: #0000ff"/>
     <use xlink:href="#m57052b1261" x="222.89975" y="280.035309" style="fill: #0000ff; stroke: #0000ff"/>
     <use xlink:href="#m57052b1261" x="240.624167" y="279.703741" style="fill: #0000ff; stroke: #0000ff"/>
     <use xlink:href="#m57052b1261" x="258.348583" y="287.910494" style="fill: #0000ff; stroke: #0000ff"/>
     <use xlink:href="#m57052b1261" x="276.073" y="291.632245" style="fill: #0000ff; stroke: #0000ff"/>
     <use xlink:href="#m57052b1261" x="293.797417" y="266.161905" style="fill: #0000ff; stroke: #0000ff"/>
     <use xlink:href="#m57052b1261" x="311.521833" y="227.383281" style="fill: #0000ff; stroke: #0000ff"/>
     <use xlink:href="#m57052b1261" x="329.24625" y="223.628421" style="fill: #0000ff; stroke: #0000ff"/>
     <use xlink:href="#m57052b1261" x="346.970667" y="260.753819" style="fill: #0000ff; stroke: #0000ff"/>
     <use xlink:href="#m57052b1261" x="364.695083" y="286.104225" style="fill: #0000ff; stroke: #0000ff"/>
     <use xlink:href="#m57052b1261" x="382.4195" y="275.950792" style="fill: #0000ff; stroke: #0000ff"/>
     <use xlink:href="#m57052b1261" x="400.143917" y="282.401663" style="fill: #0000ff; stroke: #0000ff"/>
     <use xlink:href="#m57052b1261" x="417.868333" y="337.272536" style="fill: #0000ff; stroke: #0000ff"/>
     <use xlink:href="#m57052b1261" x="435.59275" y="359.97883" style="fill: #0000ff; stroke: #0000ff"/>
     <use xlink:href="#m57052b1261" x="453.317167" y="256.508713" style="fill: #0000ff; stroke: #0000ff"/>
     <use xlink:href="#m57052b1261" x="471.041583" y="97.391682" style="fill: #0000ff; stroke: #0000ff"/>
     <use xlink:href="#m57052b1261" x="488.766" y="80.830491" style="fill: #0000ff; stroke: #0000ff"/>
     <use xlink:href="#m57052b1261" x="506.490417" y="273.402585" style="fill: #0000ff; stroke: #0000ff"/>
     <use xlink:href="#m57052b1261" x="524.214833" y="484.285162" style="fill: #0000ff; stroke: #0000ff"/>
     <use xlink:href="#m57052b1261" x="541.93925" y="482.239255" style="fill: #0000ff; stroke: #0000ff"/>
     <use xlink:href="#m57052b1261" x="559.663667" y="279.467599" style="fill: #0000ff; stroke: #0000ff"/>
     <use xlink:href="#m57052b1261" x="577.388083" y="103.729843" style="fill: #0000ff; stroke: #0000ff"/>
     <use xlink:href="#m57052b1261" x="595.1125" y="114.219809" style="fill: #0000ff; stroke: #0000ff"/>
     <use xlink:href="#m57052b1261" x="612.836917" y="243.905165" style="fill: #0000ff; stroke: #0000ff"/>
     <use xlink:href="#m57052b1261" x="630.561333" y="332.662019" style="fill: #0000ff; stroke: #0000ff"/>
     <use xlink:href="#m57052b1261" x="648.28575" y="325.793541" style="fill: #0000ff; stroke: #0000ff"/>
     <use xlink:href="#m57052b1261" x="666.010167" y="289.625749" style="fill: #0000ff; stroke: #0000ff"/>
     <use xlink:href="#m57052b1261" x="683.734583" y="283.803046" style="fill: #0000ff; stroke: #0000ff"/>
     <use xlink:href="#m57052b1261" x="701.459" y="290.529808" style="fill: #0000ff; stroke: #0000ff"/>
     <use xlink:href="#m57052b1261" x="719.183417" y="270.316475" style="fill: #0000ff; stroke: #0000ff"/>
     <use xlink:href="#m57052b1261" x="736.907833" y="232.84078" style="fill: #0000ff; stroke: #0000ff"/>
     <use xlink:href="#m57052b1261" x="754.63225" y="221.128937" style="fill: #0000ff; stroke: #0000ff"/>
     <use xlink:href="#m57052b1261" x="772.356667" y="248.432003" style="fill: #0000ff; stroke: #0000ff"/>
     <use xlink:href="#m57052b1261" x="790.081083" y="283.735091" style="fill: #0000ff; stroke: #0000ff"/>
     <use xlink:href="#m57052b1261" x="807.8055" y="296.180223" style="fill: #0000ff; stroke: #0000ff"/>
     <use xlink:href="#m57052b1261" x="825.529917" y="288.125493" style="fill: #0000ff; stroke: #0000ff"/>
     <use xlink:href="#m57052b1261" x="843.254333" y="278.83858" style="fill: #0000ff; stroke: #0000ff"/>
     <use xlink:href="#m57052b1261" x="860.97875" y="274.381768" style="fill: #0000ff; stroke: #0000ff"/>
     <use xlink:href="#m57052b1261" x="878.703167" y="266.42824" style="fill: #0000ff; stroke: #0000ff"/>
     <use xlink:href="#m57052b1261" x="896.427583" y="253.066763" style="fill: #0000ff; stroke: #0000ff"/>
     <use xlink:href="#m57052b1261" x="914.152" y="246.521101" style="fill: #0000ff; stroke: #0000ff"/>
     <use xlink:href="#m57052b1261" x="931.876417" y="256.670459" style="fill: #0000ff; stroke: #0000ff"/>
     <use xlink:href="#m57052b1261" x="949.600833" y="275.477057" style="fill: #0000ff; stroke: #0000ff"/>
     <use xlink:href="#m57052b1261" x="967.32525" y="285.681504" style="fill: #0000ff; stroke: #0000ff"/>
     <use xlink:href="#m57052b1261" x="985.049667" y="281.39437" style="fill: #0000ff; stroke: #0000ff"/>
     <use xlink:href="#m57052b1261" x="1002.774083" y="271.933899" style="fill: #0000ff; stroke: #0000ff"/>
     <use xlink:href="#m57052b1261" x="1020.4985" y="266.674445" style="fill: #0000ff; stroke: #0000ff"/>
     <use xlink:href="#m57052b1261" x="1038.222917" y="264.821778" style="fill: #0000ff; stroke: #0000ff"/>
     <use xlink:href="#m57052b1261" x="1055.947333" y="262.20494" style="fill: #0000ff; stroke: #0000ff"/>
     <use xlink:href="#m57052b1261" x="1073.67175" y="260.976896" style="fill: #0000ff; stroke: #0000ff"/>
     <use xlink:href="#m57052b1261" x="1091.396167" y="266.384593" style="fill: #0000ff; stroke: #0000ff"/>
     <use xlink:href="#m57052b1261" x="1109.120583" y="275.847694" style="fill: #0000ff; stroke: #0000ff"/>
     <use xlink:href="#m57052b1261" x="1126.845" y="278.674701" style="fill: #0000ff; stroke: #0000ff"/>
     <use xlink:href="#m57052b1261" x="1144.569417" y="270.318115" style="fill: #0000ff; stroke: #0000ff"/>
    </g>
   </g>
   <g id="patch_3">
    <path d="M 63.38 526.84 
L 63.38 10.8 
" style="fill: none; stroke: #000000; stroke-width: 0.8; stroke-linejoin: miter; stroke-linecap: square"/>
   </g>
   <g id="patch_4">
    <path d="M 1126.845 526.84 
L 1126.845 10.8 
" style="fill: none; stroke: #000000; stroke-width: 0.8; stroke-linejoin: miter; stroke-linecap: square"/>
   </g>
   <g id="patch_5">
    <path d="M 63.38 526.84 
L 1126.845 526.84 
" style="fill: none; stroke: #000000; stroke-width: 0.8; stroke-linejoin: miter; stroke-linecap: square"/>
   </g>
   <g id="patch_6">
    <path d="M 63.38 10.8 
L 1126.845 10.8 
" style="fill: none; stroke: #000000; stroke-width: 0.8; stroke-linejoin: miter; stroke-linecap: square"/>
   </g>
   <g id="legend_1">
    <g id="patch_7">
     <path d="M 1008.935625 77.790625 
L 1119.845 77.790625 
Q 1121.845 77.790625 1121.845 75.790625 
L 1121.845 17.8 
Q 1121.845 15.8 1119.845 15.8 
L 1008.935625 15.8 
Q 1006.935625 15.8 1006.935625 17.8 
L 1006.935625 75.790625 
Q 1006.935625 77.790625 1008.935625 77.790625 
z
" style="fill: #ffffff; opacity: 0.8; stroke: #cccccc; stroke-linejoin: miter"/>
    </g>
    <g id="line2d_19">
     <path d="M 1010.935625 23.898438 
L 1020.935625 23.898438 
L 1030.935625 23.898438 
" style="fill: none; stroke: #000000; stroke-linecap: square"/>
    </g>
    <g id="text_17">
     <!-- amplitude -->
     <g transform="translate(1038.935625 27.398438)scale(0.1 -0.1)">
      <use xlink:href="#DejaVuSans-61"/>
      <use xlink:href="#DejaVuSans-6d" x="61.279297"/>
      <use xlink:href="#DejaVuSans-70" x="158.691406"/>
      <use xlink:href="#DejaVuSans-6c" x="222.167969"/>
      <use xlink:href="#DejaVuSans-69" x="249.951172"/>
      <use xlink:href="#DejaVuSans-74" x="277.734375"/>
      <use xlink:href="#DejaVuSans-75" x="316.943359"/>
      <use xlink:href="#DejaVuSans-64" x="380.322266"/>
      <use xlink:href="#DejaVuSans-65" x="443.798828"/>
     </g>
    </g>
    <g id="line2d_20">
     <g>
      <use xlink:href="#mc8cf9887f1" x="1020.935625" y="38.576563" style="stroke: #000000"/>
     </g>
    </g>
    <g id="text_18">
     <!-- amplitude -->
     <g transform="translate(1038.935625 42.076563)scale(0.1 -0.1)">
      <use xlink:href="#DejaVuSans-61"/>
      <use xlink:href="#DejaVuSans-6d" x="61.279297"/>
      <use xlink:href="#DejaVuSans-70" x="158.691406"/>
      <use xlink:href="#DejaVuSans-6c" x="222.167969"/>
      <use xlink:href="#DejaVuSans-69" x="249.951172"/>
      <use xlink:href="#DejaVuSans-74" x="277.734375"/>
      <use xlink:href="#DejaVuSans-75" x="316.943359"/>
      <use xlink:href="#DejaVuSans-64" x="380.322266"/>
      <use xlink:href="#DejaVuSans-65" x="443.798828"/>
     </g>
    </g>
    <g id="line2d_21">
     <path d="M 1010.935625 53.254688 
L 1020.935625 53.254688 
L 1030.935625 53.254688 
" style="fill: none; stroke: #000000; stroke-width: 2; stroke-linecap: square"/>
    </g>
    <g id="text_19">
     <!-- envelope -->
     <g transform="translate(1038.935625 56.754688)scale(0.1 -0.1)">
      <defs>
       <path id="DejaVuSans-6e" d="M 3513 2113 
L 3513 0 
L 2938 0 
L 2938 2094 
Q 2938 2591 2744 2837 
Q 2550 3084 2163 3084 
Q 1697 3084 1428 2787 
Q 1159 2491 1159 1978 
L 1159 0 
L 581 0 
L 581 3500 
L 1159 3500 
L 1159 2956 
Q 1366 3272 1645 3428 
Q 1925 3584 2291 3584 
Q 2894 3584 3203 3211 
Q 3513 2838 3513 2113 
z
" transform="scale(0.015625)"/>
       <path id="DejaVuSans-76" d="M 191 3500 
L 800 3500 
L 1894 563 
L 2988 3500 
L 3597 3500 
L 2284 0 
L 1503 0 
L 191 3500 
z
" transform="scale(0.015625)"/>
       <path id="DejaVuSans-6f" d="M 1959 3097 
Q 1497 3097 1228 2736 
Q 959 2375 959 1747 
Q 959 1119 1226 758 
Q 1494 397 1959 397 
Q 2419 397 2687 759 
Q 2956 1122 2956 1747 
Q 2956 2369 2687 2733 
Q 2419 3097 1959 3097 
z
M 1959 3584 
Q 2709 3584 3137 3096 
Q 3566 2609 3566 1747 
Q 3566 888 3137 398 
Q 2709 -91 1959 -91 
Q 1206 -91 779 398 
Q 353 888 353 1747 
Q 353 2609 779 3096 
Q 1206 3584 1959 3584 
z
" transform="scale(0.015625)"/>
      </defs>
      <use xlink:href="#DejaVuSans-65"/>
      <use xlink:href="#DejaVuSans-6e" x="61.523438"/>
      <use xlink:href="#DejaVuSans-76" x="124.902344"/>
      <use xlink:href="#DejaVuSans-65" x="184.082031"/>
      <use xlink:href="#DejaVuSans-6c" x="245.605469"/>
      <use xlink:href="#DejaVuSans-6f" x="273.388672"/>
      <use xlink:href="#DejaVuSans-70" x="334.570312"/>
      <use xlink:href="#DejaVuSans-65" x="398.046875"/>
     </g>
    </g>
    <g id="line2d_22">
     <g>
      <use xlink:href="#m57052b1261" x="1020.935625" y="67.932813" style="fill: #0000ff; stroke: #0000ff"/>
     </g>
    </g>
    <g id="text_20">
     <!-- resampled_poly -->
     <g transform="translate(1038.935625 71.432813)scale(0.1 -0.1)">
      <defs>
       <path id="DejaVuSans-72" d="M 2631 2963 
Q 2534 3019 2420 3045 
Q 2306 3072 2169 3072 
Q 1681 3072 1420 2755 
Q 1159 2438 1159 1844 
L 1159 0 
L 581 0 
L 581 3500 
L 1159 3500 
L 1159 2956 
Q 1341 3275 1631 3429 
Q 1922 3584 2338 3584 
Q 2397 3584 2469 3576 
Q 2541 3569 2628 3553 
L 2631 2963 
z
" transform="scale(0.015625)"/>
       <path id="DejaVuSans-5f" d="M 3263 -1063 
L 3263 -1509 
L -63 -1509 
L -63 -1063 
L 3263 -1063 
z
" transform="scale(0.015625)"/>
       <path id="DejaVuSans-79" d="M 2059 -325 
Q 1816 -950 1584 -1140 
Q 1353 -1331 966 -1331 
L 506 -1331 
L 506 -850 
L 844 -850 
Q 1081 -850 1212 -737 
Q 1344 -625 1503 -206 
L 1606 56 
L 191 3500 
L 800 3500 
L 1894 763 
L 2988 3500 
L 3597 3500 
L 2059 -325 
z
" transform="scale(0.015625)"/>
      </defs>
      <use xlink:href="#DejaVuSans-72"/>
      <use xlink:href="#DejaVuSans-65" x="38.863281"/>
      <use xlink:href="#DejaVuSans-73" x="100.386719"/>
      <use xlink:href="#DejaVuSans-61" x="152.486328"/>
      <use xlink:href="#DejaVuSans-6d" x="213.765625"/>
      <use xlink:href="#DejaVuSans-70" x="311.177734"/>
      <use xlink:href="#DejaVuSans-6c" x="374.654297"/>
      <use xlink:href="#DejaVuSans-65" x="402.4375"/>
      <use xlink:href="#DejaVuSans-64" x="463.960938"/>
      <use xlink:href="#DejaVuSans-5f" x="527.4375"/>
      <use xlink:href="#DejaVuSans-70" x="577.4375"/>
      <use xlink:href="#DejaVuSans-6f" x="640.914062"/>
      <use xlink:href="#DejaVuSans-6c" x="702.095703"/>
      <use xlink:href="#DejaVuSans-79" x="729.878906"/>
     </g>
    </g>
   </g>
  </g>
 </g>
 <defs>
  <clipPath id="pa97b204e49">
   <rect x="63.38" y="10.8" width="1063.465" height="516.04"/>
  </clipPath>
 </defs>
</svg>
